G04*
G04 #@! TF.GenerationSoftware,Altium Limited,Altium Designer,20.2.6 (244)*
G04*
G04 Layer_Color=32896*
%FSLAX24Y24*%
%MOIN*%
G70*
G04*
G04 #@! TF.SameCoordinates,601DEEF6-7E2B-4F85-A560-B3D03E394376*
G04*
G04*
G04 #@! TF.FilePolarity,Positive*
G04*
G01*
G75*
G36*
X15058Y40958D02*
X15104Y40954D01*
X15147Y40948D01*
X15187Y40939D01*
X15227Y40929D01*
X15262Y40918D01*
X15293Y40906D01*
X15325Y40893D01*
X15352Y40881D01*
X15375Y40868D01*
X15395Y40858D01*
X15412Y40848D01*
X15424Y40839D01*
X15435Y40833D01*
X15441Y40829D01*
X15443Y40827D01*
X15474Y40800D01*
X15502Y40770D01*
X15527Y40737D01*
X15547Y40702D01*
X15566Y40666D01*
X15583Y40629D01*
X15597Y40593D01*
X15610Y40558D01*
X15620Y40525D01*
X15629Y40493D01*
X15635Y40464D01*
X15639Y40439D01*
X15643Y40418D01*
X15645Y40402D01*
X15647Y40393D01*
Y40389D01*
X15281Y40354D01*
X15279Y40383D01*
X15275Y40410D01*
X15264Y40458D01*
X15252Y40498D01*
X15239Y40529D01*
X15225Y40554D01*
X15214Y40571D01*
X15206Y40579D01*
X15204Y40583D01*
X15177Y40606D01*
X15145Y40625D01*
X15114Y40637D01*
X15085Y40645D01*
X15058Y40650D01*
X15037Y40654D01*
X15018D01*
X14977Y40652D01*
X14941Y40643D01*
X14910Y40633D01*
X14883Y40620D01*
X14862Y40608D01*
X14848Y40598D01*
X14837Y40589D01*
X14835Y40587D01*
X14812Y40560D01*
X14795Y40529D01*
X14785Y40498D01*
X14777Y40468D01*
X14773Y40439D01*
X14768Y40418D01*
Y40410D01*
Y40404D01*
Y40400D01*
Y40398D01*
X14773Y40356D01*
X14781Y40314D01*
X14793Y40277D01*
X14806Y40243D01*
X14820Y40214D01*
X14833Y40191D01*
X14839Y40183D01*
X14841Y40177D01*
X14845Y40175D01*
Y40173D01*
X14858Y40156D01*
X14875Y40135D01*
X14895Y40112D01*
X14916Y40089D01*
X14966Y40037D01*
X15020Y39985D01*
X15045Y39960D01*
X15070Y39935D01*
X15091Y39914D01*
X15112Y39896D01*
X15129Y39881D01*
X15141Y39869D01*
X15150Y39860D01*
X15152Y39858D01*
X15208Y39806D01*
X15258Y39756D01*
X15306Y39708D01*
X15347Y39664D01*
X15385Y39625D01*
X15418Y39585D01*
X15450Y39552D01*
X15474Y39521D01*
X15497Y39492D01*
X15516Y39469D01*
X15533Y39446D01*
X15545Y39429D01*
X15554Y39417D01*
X15562Y39406D01*
X15564Y39400D01*
X15566Y39398D01*
X15602Y39333D01*
X15629Y39269D01*
X15652Y39206D01*
X15668Y39150D01*
X15674Y39125D01*
X15679Y39102D01*
X15683Y39081D01*
X15687Y39064D01*
X15689Y39050D01*
Y39039D01*
X15691Y39033D01*
Y39031D01*
X14400D01*
Y39373D01*
X15133D01*
X15108Y39408D01*
X15095Y39425D01*
X15085Y39442D01*
X15075Y39454D01*
X15066Y39464D01*
X15060Y39471D01*
X15058Y39473D01*
X15047Y39483D01*
X15035Y39498D01*
X15020Y39512D01*
X15004Y39529D01*
X14968Y39564D01*
X14931Y39600D01*
X14895Y39633D01*
X14879Y39648D01*
X14864Y39660D01*
X14854Y39671D01*
X14845Y39679D01*
X14839Y39683D01*
X14837Y39685D01*
X14806Y39714D01*
X14777Y39741D01*
X14750Y39769D01*
X14725Y39791D01*
X14704Y39814D01*
X14683Y39833D01*
X14666Y39852D01*
X14650Y39869D01*
X14627Y39896D01*
X14608Y39914D01*
X14600Y39927D01*
X14595Y39931D01*
X14560Y39979D01*
X14529Y40025D01*
X14504Y40066D01*
X14483Y40102D01*
X14468Y40133D01*
X14462Y40146D01*
X14456Y40156D01*
X14452Y40164D01*
X14450Y40173D01*
X14448Y40175D01*
Y40177D01*
X14431Y40221D01*
X14420Y40264D01*
X14412Y40306D01*
X14406Y40346D01*
X14402Y40377D01*
Y40391D01*
X14400Y40402D01*
Y40412D01*
Y40418D01*
Y40423D01*
Y40425D01*
X14402Y40466D01*
X14406Y40506D01*
X14414Y40543D01*
X14425Y40581D01*
X14437Y40614D01*
X14452Y40645D01*
X14466Y40675D01*
X14481Y40700D01*
X14498Y40725D01*
X14512Y40745D01*
X14527Y40764D01*
X14539Y40779D01*
X14550Y40789D01*
X14558Y40800D01*
X14562Y40804D01*
X14564Y40806D01*
X14595Y40833D01*
X14631Y40856D01*
X14666Y40877D01*
X14702Y40895D01*
X14739Y40910D01*
X14777Y40923D01*
X14812Y40933D01*
X14848Y40941D01*
X14881Y40948D01*
X14912Y40952D01*
X14939Y40956D01*
X14962Y40958D01*
X14983Y40960D01*
X15010D01*
X15058Y40958D01*
D02*
G37*
G36*
X19103Y39031D02*
X18686D01*
X17999Y40954D01*
X18412D01*
X18882Y39531D01*
X19370Y40954D01*
X19788D01*
X19103Y39031D01*
D02*
G37*
G36*
X25456D02*
X25098D01*
X24860Y39927D01*
X24621Y39031D01*
X24265D01*
X23817Y40425D01*
X24181D01*
X24448Y39510D01*
X24681Y40425D01*
X25038D01*
X25277Y39510D01*
X25537Y40425D01*
X25896D01*
X25456Y39031D01*
D02*
G37*
G36*
X36467Y39541D02*
X36465Y39473D01*
X36463Y39439D01*
X36459Y39410D01*
X36457Y39383D01*
X36452Y39358D01*
X36448Y39335D01*
X36442Y39314D01*
X36438Y39296D01*
X36434Y39279D01*
X36429Y39264D01*
X36427Y39254D01*
X36423Y39246D01*
X36421Y39239D01*
X36419Y39235D01*
Y39233D01*
X36398Y39194D01*
X36373Y39160D01*
X36346Y39129D01*
X36319Y39106D01*
X36296Y39085D01*
X36277Y39073D01*
X36269Y39067D01*
X36263Y39062D01*
X36261Y39060D01*
X36259D01*
X36215Y39039D01*
X36171Y39025D01*
X36130Y39014D01*
X36090Y39008D01*
X36057Y39004D01*
X36042Y39002D01*
X36030Y39000D01*
X36007D01*
X35957Y39002D01*
X35909Y39010D01*
X35863Y39021D01*
X35825Y39031D01*
X35792Y39044D01*
X35780Y39048D01*
X35767Y39052D01*
X35759Y39056D01*
X35752Y39060D01*
X35748Y39062D01*
X35746D01*
X35703Y39089D01*
X35661Y39117D01*
X35628Y39148D01*
X35598Y39175D01*
X35575Y39200D01*
X35559Y39221D01*
X35553Y39229D01*
X35548Y39235D01*
X35544Y39237D01*
Y39031D01*
X35203D01*
Y40425D01*
X35571D01*
Y39835D01*
Y39781D01*
X35573Y39733D01*
Y39689D01*
X35575Y39652D01*
X35578Y39616D01*
X35580Y39585D01*
X35584Y39558D01*
X35586Y39535D01*
X35588Y39516D01*
X35592Y39500D01*
X35594Y39487D01*
X35596Y39477D01*
X35598Y39469D01*
Y39464D01*
X35600Y39460D01*
X35613Y39433D01*
X35628Y39408D01*
X35644Y39385D01*
X35661Y39367D01*
X35678Y39352D01*
X35690Y39342D01*
X35698Y39333D01*
X35703Y39331D01*
X35730Y39314D01*
X35759Y39302D01*
X35788Y39294D01*
X35813Y39287D01*
X35836Y39283D01*
X35852Y39281D01*
X35869D01*
X35898Y39283D01*
X35925Y39287D01*
X35948Y39294D01*
X35969Y39300D01*
X35986Y39306D01*
X35996Y39312D01*
X36005Y39317D01*
X36007Y39319D01*
X36025Y39335D01*
X36040Y39352D01*
X36052Y39369D01*
X36063Y39385D01*
X36069Y39400D01*
X36075Y39412D01*
X36077Y39421D01*
X36080Y39423D01*
X36084Y39437D01*
X36086Y39458D01*
X36088Y39481D01*
X36090Y39508D01*
X36092Y39535D01*
X36094Y39567D01*
X36096Y39629D01*
Y39658D01*
Y39687D01*
X36098Y39712D01*
Y39737D01*
Y39756D01*
Y39771D01*
Y39779D01*
Y39783D01*
Y40425D01*
X36467D01*
Y39541D01*
D02*
G37*
G36*
X32701Y40454D02*
X32751Y40448D01*
X32797Y40437D01*
X32838Y40425D01*
X32880Y40410D01*
X32918Y40393D01*
X32953Y40375D01*
X32984Y40358D01*
X33011Y40339D01*
X33036Y40321D01*
X33059Y40304D01*
X33076Y40289D01*
X33090Y40277D01*
X33101Y40266D01*
X33107Y40260D01*
X33109Y40258D01*
X33140Y40221D01*
X33168Y40179D01*
X33192Y40135D01*
X33213Y40091D01*
X33230Y40046D01*
X33245Y40000D01*
X33257Y39956D01*
X33265Y39914D01*
X33274Y39873D01*
X33278Y39837D01*
X33282Y39802D01*
X33286Y39773D01*
Y39750D01*
X33288Y39731D01*
Y39721D01*
Y39716D01*
X33286Y39664D01*
X33282Y39612D01*
X33276Y39564D01*
X33267Y39519D01*
X33257Y39477D01*
X33245Y39437D01*
X33232Y39400D01*
X33220Y39367D01*
X33207Y39337D01*
X33195Y39310D01*
X33182Y39289D01*
X33172Y39271D01*
X33163Y39254D01*
X33157Y39244D01*
X33153Y39237D01*
X33151Y39235D01*
X33115Y39194D01*
X33078Y39158D01*
X33036Y39127D01*
X32995Y39100D01*
X32949Y39077D01*
X32905Y39058D01*
X32861Y39042D01*
X32818Y39029D01*
X32776Y39019D01*
X32738Y39012D01*
X32703Y39006D01*
X32674Y39004D01*
X32649Y39002D01*
X32630Y39000D01*
X32613D01*
X32572Y39002D01*
X32532Y39004D01*
X32493Y39010D01*
X32457Y39017D01*
X32424Y39025D01*
X32393Y39033D01*
X32363Y39042D01*
X32336Y39052D01*
X32313Y39062D01*
X32293Y39071D01*
X32274Y39079D01*
X32259Y39087D01*
X32247Y39094D01*
X32238Y39100D01*
X32234Y39102D01*
X32232Y39104D01*
X32205Y39125D01*
X32178Y39148D01*
X32132Y39198D01*
X32093Y39248D01*
X32061Y39298D01*
X32049Y39321D01*
X32039Y39344D01*
X32028Y39362D01*
X32020Y39379D01*
X32016Y39394D01*
X32011Y39404D01*
X32007Y39410D01*
Y39412D01*
X32374Y39475D01*
X32386Y39437D01*
X32401Y39406D01*
X32416Y39379D01*
X32432Y39358D01*
X32445Y39342D01*
X32455Y39329D01*
X32463Y39323D01*
X32466Y39321D01*
X32488Y39306D01*
X32513Y39294D01*
X32536Y39285D01*
X32559Y39281D01*
X32580Y39277D01*
X32595Y39275D01*
X32609D01*
X32632Y39277D01*
X32655Y39279D01*
X32697Y39289D01*
X32734Y39304D01*
X32765Y39321D01*
X32790Y39335D01*
X32809Y39350D01*
X32820Y39360D01*
X32822Y39364D01*
X32824D01*
X32853Y39402D01*
X32874Y39444D01*
X32888Y39487D01*
X32899Y39529D01*
X32905Y39564D01*
X32907Y39581D01*
X32909Y39596D01*
X32911Y39606D01*
Y39616D01*
Y39621D01*
Y39623D01*
X31989D01*
Y39700D01*
X31995Y39771D01*
X32003Y39837D01*
X32014Y39900D01*
X32026Y39956D01*
X32041Y40006D01*
X32055Y40054D01*
X32072Y40096D01*
X32088Y40131D01*
X32105Y40162D01*
X32120Y40189D01*
X32134Y40212D01*
X32145Y40229D01*
X32153Y40239D01*
X32159Y40248D01*
X32161Y40250D01*
X32197Y40285D01*
X32234Y40318D01*
X32274Y40346D01*
X32313Y40368D01*
X32355Y40389D01*
X32395Y40406D01*
X32434Y40418D01*
X32474Y40431D01*
X32509Y40439D01*
X32543Y40446D01*
X32574Y40450D01*
X32599Y40452D01*
X32622Y40454D01*
X32636Y40456D01*
X32651D01*
X32701Y40454D01*
D02*
G37*
G36*
X23148D02*
X23198Y40448D01*
X23244Y40437D01*
X23286Y40425D01*
X23327Y40410D01*
X23365Y40393D01*
X23400Y40375D01*
X23432Y40358D01*
X23459Y40339D01*
X23484Y40321D01*
X23507Y40304D01*
X23523Y40289D01*
X23538Y40277D01*
X23548Y40266D01*
X23554Y40260D01*
X23557Y40258D01*
X23588Y40221D01*
X23615Y40179D01*
X23640Y40135D01*
X23661Y40091D01*
X23677Y40046D01*
X23692Y40000D01*
X23704Y39956D01*
X23713Y39914D01*
X23721Y39873D01*
X23725Y39837D01*
X23729Y39802D01*
X23734Y39773D01*
Y39750D01*
X23736Y39731D01*
Y39721D01*
Y39716D01*
X23734Y39664D01*
X23729Y39612D01*
X23723Y39564D01*
X23715Y39519D01*
X23704Y39477D01*
X23692Y39437D01*
X23679Y39400D01*
X23667Y39367D01*
X23654Y39337D01*
X23642Y39310D01*
X23629Y39289D01*
X23619Y39271D01*
X23611Y39254D01*
X23604Y39244D01*
X23600Y39237D01*
X23598Y39235D01*
X23563Y39194D01*
X23525Y39158D01*
X23484Y39127D01*
X23442Y39100D01*
X23396Y39077D01*
X23352Y39058D01*
X23309Y39042D01*
X23265Y39029D01*
X23223Y39019D01*
X23186Y39012D01*
X23150Y39006D01*
X23121Y39004D01*
X23096Y39002D01*
X23077Y39000D01*
X23061D01*
X23019Y39002D01*
X22980Y39004D01*
X22940Y39010D01*
X22905Y39017D01*
X22871Y39025D01*
X22840Y39033D01*
X22811Y39042D01*
X22784Y39052D01*
X22761Y39062D01*
X22740Y39071D01*
X22721Y39079D01*
X22707Y39087D01*
X22694Y39094D01*
X22686Y39100D01*
X22682Y39102D01*
X22680Y39104D01*
X22653Y39125D01*
X22625Y39148D01*
X22580Y39198D01*
X22540Y39248D01*
X22509Y39298D01*
X22496Y39321D01*
X22486Y39344D01*
X22475Y39362D01*
X22467Y39379D01*
X22463Y39394D01*
X22459Y39404D01*
X22455Y39410D01*
Y39412D01*
X22821Y39475D01*
X22834Y39437D01*
X22848Y39406D01*
X22863Y39379D01*
X22880Y39358D01*
X22892Y39342D01*
X22902Y39329D01*
X22911Y39323D01*
X22913Y39321D01*
X22936Y39306D01*
X22961Y39294D01*
X22984Y39285D01*
X23007Y39281D01*
X23027Y39277D01*
X23042Y39275D01*
X23057D01*
X23080Y39277D01*
X23102Y39279D01*
X23144Y39289D01*
X23182Y39304D01*
X23213Y39321D01*
X23238Y39335D01*
X23257Y39350D01*
X23267Y39360D01*
X23269Y39364D01*
X23271D01*
X23300Y39402D01*
X23321Y39444D01*
X23336Y39487D01*
X23346Y39529D01*
X23352Y39564D01*
X23354Y39581D01*
X23357Y39596D01*
X23359Y39606D01*
Y39616D01*
Y39621D01*
Y39623D01*
X22436D01*
Y39700D01*
X22442Y39771D01*
X22450Y39837D01*
X22461Y39900D01*
X22473Y39956D01*
X22488Y40006D01*
X22503Y40054D01*
X22519Y40096D01*
X22536Y40131D01*
X22553Y40162D01*
X22567Y40189D01*
X22582Y40212D01*
X22592Y40229D01*
X22600Y40239D01*
X22607Y40248D01*
X22609Y40250D01*
X22644Y40285D01*
X22682Y40318D01*
X22721Y40346D01*
X22761Y40368D01*
X22802Y40389D01*
X22842Y40406D01*
X22882Y40418D01*
X22921Y40431D01*
X22957Y40439D01*
X22990Y40446D01*
X23021Y40450D01*
X23046Y40452D01*
X23069Y40454D01*
X23084Y40456D01*
X23098D01*
X23148Y40454D01*
D02*
G37*
G36*
X31078D02*
X31107Y40450D01*
X31134Y40441D01*
X31159Y40433D01*
X31178Y40425D01*
X31193Y40416D01*
X31201Y40412D01*
X31205Y40410D01*
X31218Y40402D01*
X31232Y40389D01*
X31259Y40362D01*
X31284Y40333D01*
X31309Y40302D01*
X31330Y40273D01*
X31347Y40248D01*
X31353Y40237D01*
X31357Y40231D01*
X31359Y40227D01*
X31362Y40225D01*
Y40425D01*
X31703D01*
Y39031D01*
X31334D01*
Y39460D01*
Y39525D01*
X31332Y39583D01*
Y39635D01*
X31330Y39683D01*
X31328Y39727D01*
X31326Y39764D01*
X31322Y39798D01*
X31320Y39827D01*
X31318Y39852D01*
X31314Y39873D01*
X31312Y39891D01*
X31309Y39904D01*
X31307Y39914D01*
Y39921D01*
X31305Y39925D01*
Y39927D01*
X31293Y39966D01*
X31278Y39998D01*
X31264Y40025D01*
X31251Y40046D01*
X31239Y40062D01*
X31228Y40073D01*
X31222Y40079D01*
X31220Y40081D01*
X31199Y40096D01*
X31176Y40106D01*
X31155Y40114D01*
X31134Y40118D01*
X31116Y40123D01*
X31101Y40125D01*
X31089D01*
X31057Y40123D01*
X31028Y40116D01*
X30999Y40106D01*
X30972Y40096D01*
X30949Y40083D01*
X30932Y40075D01*
X30920Y40066D01*
X30916Y40064D01*
X30801Y40385D01*
X30845Y40408D01*
X30889Y40427D01*
X30930Y40439D01*
X30968Y40448D01*
X30999Y40452D01*
X31012Y40454D01*
X31024Y40456D01*
X31045D01*
X31078Y40454D01*
D02*
G37*
G36*
X29145Y39031D02*
X28758D01*
Y39756D01*
X28458D01*
X28412Y39758D01*
X28370D01*
X28331Y39760D01*
X28295Y39762D01*
X28262Y39764D01*
X28231Y39766D01*
X28204Y39771D01*
X28181Y39773D01*
X28160Y39775D01*
X28141Y39777D01*
X28127Y39779D01*
X28116Y39781D01*
X28108D01*
X28104Y39783D01*
X28102D01*
X28064Y39794D01*
X28027Y39806D01*
X27993Y39821D01*
X27964Y39835D01*
X27937Y39850D01*
X27918Y39862D01*
X27906Y39871D01*
X27904Y39873D01*
X27902D01*
X27866Y39902D01*
X27833Y39933D01*
X27806Y39964D01*
X27781Y39994D01*
X27762Y40021D01*
X27750Y40044D01*
X27743Y40052D01*
X27739Y40058D01*
X27737Y40060D01*
Y40062D01*
X27716Y40110D01*
X27700Y40160D01*
X27689Y40210D01*
X27681Y40256D01*
X27679Y40279D01*
X27677Y40298D01*
X27675Y40316D01*
X27673Y40331D01*
Y40343D01*
Y40352D01*
Y40358D01*
Y40360D01*
X27675Y40402D01*
X27677Y40443D01*
X27683Y40481D01*
X27689Y40516D01*
X27698Y40550D01*
X27708Y40581D01*
X27718Y40608D01*
X27729Y40635D01*
X27739Y40658D01*
X27750Y40677D01*
X27758Y40695D01*
X27768Y40710D01*
X27775Y40720D01*
X27781Y40729D01*
X27783Y40733D01*
X27785Y40735D01*
X27806Y40762D01*
X27829Y40785D01*
X27852Y40806D01*
X27877Y40827D01*
X27922Y40860D01*
X27966Y40885D01*
X28004Y40904D01*
X28020Y40910D01*
X28035Y40916D01*
X28045Y40920D01*
X28054Y40923D01*
X28060Y40925D01*
X28062D01*
X28085Y40929D01*
X28112Y40935D01*
X28143Y40939D01*
X28179Y40941D01*
X28216Y40943D01*
X28254Y40948D01*
X28333Y40950D01*
X28370Y40952D01*
X28404D01*
X28437Y40954D01*
X29145D01*
Y39031D01*
D02*
G37*
G36*
X21526Y40454D02*
X21555Y40450D01*
X21582Y40441D01*
X21607Y40433D01*
X21626Y40425D01*
X21640Y40416D01*
X21649Y40412D01*
X21653Y40410D01*
X21665Y40402D01*
X21680Y40389D01*
X21707Y40362D01*
X21732Y40333D01*
X21757Y40302D01*
X21778Y40273D01*
X21794Y40248D01*
X21801Y40237D01*
X21805Y40231D01*
X21807Y40227D01*
X21809Y40225D01*
Y40425D01*
X22151D01*
Y39031D01*
X21782D01*
Y39460D01*
Y39525D01*
X21780Y39583D01*
Y39635D01*
X21778Y39683D01*
X21776Y39727D01*
X21773Y39764D01*
X21769Y39798D01*
X21767Y39827D01*
X21765Y39852D01*
X21761Y39873D01*
X21759Y39891D01*
X21757Y39904D01*
X21755Y39914D01*
Y39921D01*
X21753Y39925D01*
Y39927D01*
X21740Y39966D01*
X21726Y39998D01*
X21711Y40025D01*
X21699Y40046D01*
X21686Y40062D01*
X21676Y40073D01*
X21669Y40079D01*
X21667Y40081D01*
X21646Y40096D01*
X21624Y40106D01*
X21603Y40114D01*
X21582Y40118D01*
X21563Y40123D01*
X21549Y40125D01*
X21536D01*
X21505Y40123D01*
X21476Y40116D01*
X21446Y40106D01*
X21419Y40096D01*
X21396Y40083D01*
X21380Y40075D01*
X21367Y40066D01*
X21363Y40064D01*
X21249Y40385D01*
X21292Y40408D01*
X21336Y40427D01*
X21378Y40439D01*
X21415Y40448D01*
X21446Y40452D01*
X21459Y40454D01*
X21471Y40456D01*
X21492D01*
X21526Y40454D01*
D02*
G37*
G36*
X16312Y39031D02*
X15943D01*
Y39400D01*
X16312D01*
Y39031D01*
D02*
G37*
G36*
X26802Y40452D02*
X26871Y40441D01*
X26933Y40427D01*
X26962Y40418D01*
X26989Y40410D01*
X27012Y40402D01*
X27033Y40393D01*
X27052Y40385D01*
X27068Y40379D01*
X27081Y40373D01*
X27089Y40368D01*
X27096Y40366D01*
X27098Y40364D01*
X27156Y40327D01*
X27206Y40285D01*
X27250Y40241D01*
X27287Y40200D01*
X27314Y40162D01*
X27327Y40146D01*
X27335Y40131D01*
X27341Y40118D01*
X27348Y40110D01*
X27350Y40104D01*
X27352Y40102D01*
X27368Y40071D01*
X27381Y40037D01*
X27404Y39975D01*
X27418Y39914D01*
X27431Y39860D01*
X27433Y39835D01*
X27437Y39814D01*
X27439Y39794D01*
Y39777D01*
X27441Y39764D01*
Y39754D01*
Y39748D01*
Y39746D01*
X27439Y39702D01*
X27437Y39660D01*
X27433Y39619D01*
X27427Y39581D01*
X27420Y39546D01*
X27412Y39512D01*
X27404Y39481D01*
X27396Y39452D01*
X27387Y39427D01*
X27381Y39404D01*
X27373Y39385D01*
X27366Y39369D01*
X27360Y39356D01*
X27356Y39348D01*
X27352Y39342D01*
Y39339D01*
X27314Y39281D01*
X27273Y39229D01*
X27229Y39185D01*
X27187Y39150D01*
X27148Y39123D01*
X27133Y39110D01*
X27118Y39102D01*
X27106Y39094D01*
X27098Y39089D01*
X27091Y39087D01*
X27089Y39085D01*
X27025Y39056D01*
X26960Y39035D01*
X26898Y39021D01*
X26841Y39010D01*
X26816Y39006D01*
X26794Y39004D01*
X26775Y39002D01*
X26758D01*
X26744Y39000D01*
X26725D01*
X26669Y39002D01*
X26614Y39008D01*
X26562Y39019D01*
X26514Y39033D01*
X26469Y39048D01*
X26427Y39064D01*
X26387Y39083D01*
X26352Y39104D01*
X26321Y39123D01*
X26294Y39142D01*
X26269Y39158D01*
X26250Y39175D01*
X26233Y39187D01*
X26221Y39198D01*
X26214Y39204D01*
X26212Y39206D01*
X26177Y39246D01*
X26146Y39289D01*
X26119Y39331D01*
X26094Y39377D01*
X26075Y39421D01*
X26058Y39464D01*
X26044Y39506D01*
X26033Y39548D01*
X26025Y39585D01*
X26019Y39621D01*
X26014Y39652D01*
X26010Y39679D01*
Y39700D01*
X26008Y39716D01*
Y39727D01*
Y39731D01*
X26010Y39789D01*
X26017Y39844D01*
X26027Y39896D01*
X26039Y39944D01*
X26054Y39989D01*
X26073Y40033D01*
X26089Y40073D01*
X26108Y40108D01*
X26129Y40139D01*
X26146Y40168D01*
X26162Y40191D01*
X26179Y40212D01*
X26192Y40229D01*
X26202Y40239D01*
X26208Y40248D01*
X26210Y40250D01*
X26250Y40285D01*
X26289Y40318D01*
X26333Y40346D01*
X26377Y40368D01*
X26419Y40389D01*
X26462Y40406D01*
X26504Y40418D01*
X26544Y40431D01*
X26581Y40439D01*
X26616Y40446D01*
X26648Y40450D01*
X26675Y40452D01*
X26696Y40454D01*
X26712Y40456D01*
X26764D01*
X26802Y40452D01*
D02*
G37*
G36*
X37656Y40983D02*
X37692Y40979D01*
X37729Y40975D01*
X37763Y40968D01*
X37794Y40964D01*
X37821Y40958D01*
X37848Y40952D01*
X37873Y40943D01*
X37894Y40937D01*
X37910Y40933D01*
X37927Y40927D01*
X37938Y40923D01*
X37948Y40918D01*
X37952Y40916D01*
X37954D01*
X38008Y40889D01*
X38058Y40858D01*
X38098Y40827D01*
X38133Y40795D01*
X38158Y40766D01*
X38179Y40743D01*
X38185Y40735D01*
X38190Y40729D01*
X38194Y40725D01*
Y40723D01*
X38221Y40675D01*
X38242Y40627D01*
X38256Y40579D01*
X38267Y40537D01*
X38273Y40502D01*
X38275Y40485D01*
Y40473D01*
X38277Y40462D01*
Y40454D01*
Y40450D01*
Y40448D01*
X38275Y40406D01*
X38269Y40366D01*
X38260Y40327D01*
X38250Y40291D01*
X38235Y40258D01*
X38221Y40225D01*
X38204Y40196D01*
X38188Y40168D01*
X38173Y40143D01*
X38156Y40123D01*
X38142Y40104D01*
X38127Y40089D01*
X38117Y40077D01*
X38108Y40068D01*
X38102Y40062D01*
X38100Y40060D01*
X38075Y40039D01*
X38046Y40021D01*
X38013Y40002D01*
X37979Y39983D01*
X37906Y39952D01*
X37833Y39923D01*
X37800Y39912D01*
X37769Y39902D01*
X37740Y39891D01*
X37713Y39885D01*
X37692Y39879D01*
X37677Y39875D01*
X37667Y39871D01*
X37663D01*
X37619Y39860D01*
X37579Y39850D01*
X37544Y39841D01*
X37513Y39833D01*
X37483Y39825D01*
X37458Y39819D01*
X37436Y39812D01*
X37417Y39806D01*
X37400Y39802D01*
X37388Y39798D01*
X37375Y39794D01*
X37367Y39791D01*
X37361Y39789D01*
X37356D01*
X37352Y39787D01*
X37317Y39773D01*
X37288Y39760D01*
X37265Y39746D01*
X37244Y39733D01*
X37231Y39721D01*
X37221Y39712D01*
X37215Y39706D01*
X37213Y39704D01*
X37198Y39685D01*
X37188Y39666D01*
X37181Y39646D01*
X37175Y39627D01*
X37173Y39612D01*
X37171Y39600D01*
Y39589D01*
Y39587D01*
Y39569D01*
X37175Y39550D01*
X37186Y39514D01*
X37202Y39481D01*
X37219Y39454D01*
X37236Y39433D01*
X37252Y39417D01*
X37263Y39406D01*
X37265Y39402D01*
X37267D01*
X37286Y39387D01*
X37306Y39375D01*
X37352Y39356D01*
X37400Y39342D01*
X37446Y39333D01*
X37488Y39327D01*
X37504Y39325D01*
X37521D01*
X37533Y39323D01*
X37552D01*
X37615Y39327D01*
X37671Y39337D01*
X37719Y39350D01*
X37761Y39367D01*
X37777Y39375D01*
X37792Y39383D01*
X37806Y39389D01*
X37817Y39396D01*
X37825Y39402D01*
X37831Y39406D01*
X37833Y39410D01*
X37836D01*
X37854Y39429D01*
X37871Y39448D01*
X37900Y39492D01*
X37925Y39539D01*
X37944Y39585D01*
X37956Y39627D01*
X37963Y39644D01*
X37967Y39660D01*
X37969Y39673D01*
X37971Y39683D01*
X37973Y39689D01*
Y39691D01*
X38350Y39654D01*
X38342Y39596D01*
X38329Y39539D01*
X38315Y39489D01*
X38298Y39442D01*
X38279Y39398D01*
X38260Y39356D01*
X38240Y39321D01*
X38219Y39287D01*
X38200Y39258D01*
X38181Y39233D01*
X38163Y39212D01*
X38148Y39194D01*
X38135Y39181D01*
X38125Y39171D01*
X38119Y39164D01*
X38117Y39162D01*
X38077Y39133D01*
X38035Y39108D01*
X37992Y39085D01*
X37946Y39067D01*
X37900Y39050D01*
X37854Y39037D01*
X37808Y39025D01*
X37763Y39017D01*
X37721Y39010D01*
X37681Y39004D01*
X37646Y39000D01*
X37617Y38998D01*
X37592D01*
X37573Y38996D01*
X37511D01*
X37467Y38998D01*
X37423Y39002D01*
X37386Y39006D01*
X37348Y39012D01*
X37313Y39017D01*
X37281Y39023D01*
X37252Y39031D01*
X37227Y39037D01*
X37204Y39044D01*
X37184Y39048D01*
X37167Y39054D01*
X37154Y39058D01*
X37146Y39062D01*
X37140Y39064D01*
X37138D01*
X37077Y39094D01*
X37025Y39127D01*
X36981Y39164D01*
X36944Y39198D01*
X36915Y39229D01*
X36904Y39244D01*
X36894Y39256D01*
X36888Y39264D01*
X36881Y39273D01*
X36877Y39277D01*
Y39279D01*
X36861Y39306D01*
X36846Y39335D01*
X36823Y39389D01*
X36806Y39442D01*
X36796Y39489D01*
X36792Y39510D01*
X36788Y39529D01*
X36786Y39548D01*
Y39562D01*
X36784Y39573D01*
Y39583D01*
Y39587D01*
Y39589D01*
X36788Y39654D01*
X36796Y39714D01*
X36809Y39766D01*
X36815Y39789D01*
X36821Y39810D01*
X36829Y39829D01*
X36836Y39846D01*
X36842Y39860D01*
X36848Y39873D01*
X36854Y39883D01*
X36856Y39889D01*
X36861Y39894D01*
Y39896D01*
X36892Y39939D01*
X36927Y39979D01*
X36963Y40012D01*
X36996Y40041D01*
X37027Y40062D01*
X37052Y40079D01*
X37063Y40083D01*
X37069Y40087D01*
X37073Y40091D01*
X37075D01*
X37102Y40104D01*
X37131Y40118D01*
X37165Y40131D01*
X37198Y40143D01*
X37267Y40166D01*
X37336Y40187D01*
X37367Y40196D01*
X37398Y40204D01*
X37423Y40212D01*
X37448Y40218D01*
X37467Y40223D01*
X37481Y40227D01*
X37490Y40229D01*
X37494D01*
X37544Y40241D01*
X37590Y40254D01*
X37631Y40266D01*
X37669Y40279D01*
X37702Y40289D01*
X37731Y40300D01*
X37756Y40310D01*
X37777Y40318D01*
X37796Y40327D01*
X37813Y40335D01*
X37825Y40341D01*
X37833Y40348D01*
X37842Y40352D01*
X37846Y40356D01*
X37850Y40358D01*
X37869Y40377D01*
X37883Y40396D01*
X37892Y40416D01*
X37900Y40435D01*
X37904Y40450D01*
X37906Y40464D01*
Y40473D01*
Y40475D01*
X37904Y40502D01*
X37896Y40525D01*
X37888Y40546D01*
X37875Y40562D01*
X37865Y40575D01*
X37854Y40585D01*
X37848Y40591D01*
X37846Y40593D01*
X37806Y40616D01*
X37765Y40635D01*
X37719Y40648D01*
X37677Y40656D01*
X37638Y40660D01*
X37621Y40662D01*
X37606Y40664D01*
X37579D01*
X37521Y40662D01*
X37471Y40654D01*
X37429Y40643D01*
X37394Y40631D01*
X37367Y40618D01*
X37348Y40608D01*
X37338Y40600D01*
X37334Y40598D01*
X37304Y40571D01*
X37281Y40537D01*
X37263Y40502D01*
X37248Y40468D01*
X37238Y40437D01*
X37234Y40423D01*
X37229Y40410D01*
X37227Y40402D01*
Y40393D01*
X37225Y40389D01*
Y40387D01*
X36838Y40402D01*
X36842Y40450D01*
X36848Y40496D01*
X36859Y40539D01*
X36873Y40579D01*
X36888Y40616D01*
X36904Y40652D01*
X36921Y40683D01*
X36938Y40712D01*
X36956Y40737D01*
X36973Y40760D01*
X36988Y40781D01*
X37002Y40795D01*
X37015Y40808D01*
X37023Y40818D01*
X37029Y40823D01*
X37031Y40825D01*
X37067Y40854D01*
X37106Y40877D01*
X37150Y40900D01*
X37194Y40918D01*
X37238Y40933D01*
X37283Y40945D01*
X37329Y40956D01*
X37371Y40964D01*
X37413Y40973D01*
X37452Y40977D01*
X37486Y40981D01*
X37517Y40983D01*
X37540Y40985D01*
X37575D01*
X37656Y40983D01*
D02*
G37*
G36*
X17312Y40958D02*
X17360Y40952D01*
X17405Y40941D01*
X17447Y40929D01*
X17487Y40914D01*
X17522Y40898D01*
X17555Y40879D01*
X17585Y40862D01*
X17610Y40843D01*
X17632Y40825D01*
X17651Y40808D01*
X17668Y40793D01*
X17680Y40781D01*
X17689Y40770D01*
X17695Y40764D01*
X17697Y40762D01*
X17730Y40714D01*
X17760Y40660D01*
X17785Y40602D01*
X17805Y40539D01*
X17824Y40475D01*
X17839Y40410D01*
X17851Y40346D01*
X17862Y40281D01*
X17868Y40221D01*
X17874Y40164D01*
X17878Y40114D01*
X17882Y40068D01*
Y40050D01*
Y40033D01*
X17885Y40019D01*
Y40004D01*
Y39996D01*
Y39987D01*
Y39983D01*
Y39981D01*
X17882Y39881D01*
X17876Y39789D01*
X17868Y39704D01*
X17857Y39627D01*
X17845Y39556D01*
X17830Y39494D01*
X17816Y39437D01*
X17799Y39387D01*
X17782Y39346D01*
X17768Y39308D01*
X17753Y39277D01*
X17741Y39252D01*
X17730Y39233D01*
X17720Y39221D01*
X17716Y39212D01*
X17714Y39210D01*
X17680Y39173D01*
X17645Y39139D01*
X17607Y39110D01*
X17570Y39085D01*
X17533Y39067D01*
X17495Y39048D01*
X17460Y39033D01*
X17424Y39023D01*
X17391Y39014D01*
X17360Y39006D01*
X17333Y39002D01*
X17308Y39000D01*
X17289Y38998D01*
X17274Y38996D01*
X17262D01*
X17212Y38998D01*
X17164Y39004D01*
X17118Y39014D01*
X17076Y39027D01*
X17037Y39042D01*
X17001Y39058D01*
X16968Y39075D01*
X16939Y39094D01*
X16914Y39112D01*
X16891Y39129D01*
X16870Y39146D01*
X16856Y39160D01*
X16843Y39173D01*
X16833Y39183D01*
X16828Y39189D01*
X16826Y39192D01*
X16793Y39239D01*
X16764Y39294D01*
X16739Y39354D01*
X16716Y39414D01*
X16699Y39479D01*
X16683Y39546D01*
X16670Y39610D01*
X16660Y39675D01*
X16653Y39735D01*
X16647Y39791D01*
X16643Y39844D01*
X16639Y39887D01*
Y39908D01*
Y39925D01*
X16637Y39939D01*
Y39954D01*
Y39962D01*
Y39971D01*
Y39975D01*
Y39977D01*
X16639Y40075D01*
X16645Y40166D01*
X16653Y40252D01*
X16666Y40329D01*
X16681Y40400D01*
X16695Y40464D01*
X16714Y40523D01*
X16731Y40573D01*
X16747Y40618D01*
X16764Y40656D01*
X16781Y40689D01*
X16795Y40714D01*
X16808Y40735D01*
X16816Y40750D01*
X16822Y40758D01*
X16824Y40760D01*
X16856Y40795D01*
X16889Y40827D01*
X16924Y40854D01*
X16960Y40877D01*
X16995Y40895D01*
X17033Y40912D01*
X17068Y40925D01*
X17101Y40935D01*
X17135Y40943D01*
X17166Y40950D01*
X17193Y40954D01*
X17216Y40958D01*
X17235D01*
X17249Y40960D01*
X17262D01*
X17312Y40958D01*
D02*
G37*
G36*
X34105Y40454D02*
X34153Y40446D01*
X34197Y40435D01*
X34234Y40423D01*
X34265Y40410D01*
X34278Y40404D01*
X34288Y40400D01*
X34296Y40396D01*
X34303Y40391D01*
X34307Y40389D01*
X34309D01*
X34349Y40364D01*
X34384Y40335D01*
X34415Y40306D01*
X34440Y40279D01*
X34461Y40256D01*
X34476Y40235D01*
X34484Y40223D01*
X34488Y40221D01*
Y40425D01*
X34832D01*
Y38502D01*
X34463D01*
Y39202D01*
X34426Y39164D01*
X34390Y39131D01*
X34357Y39104D01*
X34328Y39083D01*
X34303Y39067D01*
X34284Y39054D01*
X34271Y39048D01*
X34267Y39046D01*
X34232Y39031D01*
X34194Y39019D01*
X34159Y39010D01*
X34128Y39006D01*
X34099Y39002D01*
X34076Y39000D01*
X34057D01*
X34011Y39002D01*
X33969Y39008D01*
X33928Y39019D01*
X33890Y39029D01*
X33853Y39044D01*
X33819Y39060D01*
X33786Y39077D01*
X33759Y39096D01*
X33732Y39114D01*
X33709Y39131D01*
X33690Y39148D01*
X33674Y39162D01*
X33659Y39175D01*
X33651Y39183D01*
X33644Y39189D01*
X33642Y39192D01*
X33613Y39229D01*
X33586Y39271D01*
X33563Y39314D01*
X33545Y39358D01*
X33528Y39404D01*
X33513Y39448D01*
X33503Y39494D01*
X33492Y39535D01*
X33486Y39577D01*
X33480Y39614D01*
X33476Y39648D01*
X33474Y39677D01*
Y39702D01*
X33472Y39721D01*
Y39731D01*
Y39735D01*
X33474Y39798D01*
X33478Y39856D01*
X33488Y39910D01*
X33499Y39960D01*
X33511Y40008D01*
X33526Y40052D01*
X33540Y40091D01*
X33557Y40127D01*
X33574Y40158D01*
X33588Y40187D01*
X33603Y40210D01*
X33615Y40229D01*
X33626Y40246D01*
X33634Y40256D01*
X33640Y40262D01*
X33642Y40264D01*
X33676Y40298D01*
X33709Y40327D01*
X33742Y40354D01*
X33778Y40375D01*
X33813Y40393D01*
X33847Y40410D01*
X33880Y40423D01*
X33911Y40433D01*
X33942Y40439D01*
X33969Y40446D01*
X33992Y40450D01*
X34013Y40454D01*
X34032D01*
X34044Y40456D01*
X34055D01*
X34105Y40454D01*
D02*
G37*
G36*
X30860Y38500D02*
X29329D01*
Y38740D01*
X30860D01*
Y38500D01*
D02*
G37*
G36*
X21307D02*
X19776D01*
Y38740D01*
X21307D01*
Y38500D01*
D02*
G37*
%LPC*%
G36*
X32643Y40175D02*
X32630D01*
X32590Y40171D01*
X32553Y40162D01*
X32520Y40148D01*
X32493Y40133D01*
X32470Y40116D01*
X32453Y40102D01*
X32443Y40093D01*
X32438Y40089D01*
X32411Y40056D01*
X32393Y40016D01*
X32378Y39977D01*
X32368Y39937D01*
X32361Y39902D01*
X32359Y39887D01*
X32357Y39875D01*
X32355Y39862D01*
Y39854D01*
Y39850D01*
Y39848D01*
X32905D01*
X32903Y39902D01*
X32895Y39948D01*
X32882Y39989D01*
X32868Y40023D01*
X32853Y40050D01*
X32840Y40068D01*
X32832Y40081D01*
X32828Y40085D01*
X32813Y40102D01*
X32797Y40114D01*
X32765Y40137D01*
X32732Y40154D01*
X32701Y40164D01*
X32672Y40171D01*
X32651Y40173D01*
X32643Y40175D01*
D02*
G37*
G36*
X23090D02*
X23077D01*
X23038Y40171D01*
X23000Y40162D01*
X22967Y40148D01*
X22940Y40133D01*
X22917Y40116D01*
X22900Y40102D01*
X22890Y40093D01*
X22886Y40089D01*
X22859Y40056D01*
X22840Y40016D01*
X22825Y39977D01*
X22815Y39937D01*
X22809Y39902D01*
X22807Y39887D01*
X22805Y39875D01*
X22802Y39862D01*
Y39854D01*
Y39850D01*
Y39848D01*
X23352D01*
X23350Y39902D01*
X23342Y39948D01*
X23329Y39989D01*
X23315Y40023D01*
X23300Y40050D01*
X23288Y40068D01*
X23280Y40081D01*
X23275Y40085D01*
X23261Y40102D01*
X23244Y40114D01*
X23213Y40137D01*
X23180Y40154D01*
X23148Y40164D01*
X23119Y40171D01*
X23098Y40173D01*
X23090Y40175D01*
D02*
G37*
G36*
X28758Y40629D02*
X28497D01*
X28466Y40627D01*
X28439D01*
X28414Y40625D01*
X28391D01*
X28370Y40623D01*
X28352D01*
X28337Y40620D01*
X28325Y40618D01*
X28314D01*
X28306Y40616D01*
X28295Y40614D01*
X28291D01*
X28258Y40606D01*
X28227Y40593D01*
X28200Y40581D01*
X28179Y40566D01*
X28160Y40552D01*
X28145Y40539D01*
X28137Y40531D01*
X28135Y40529D01*
X28114Y40502D01*
X28100Y40473D01*
X28087Y40443D01*
X28081Y40416D01*
X28077Y40393D01*
X28072Y40373D01*
Y40360D01*
Y40358D01*
Y40356D01*
X28075Y40325D01*
X28079Y40296D01*
X28087Y40271D01*
X28095Y40250D01*
X28104Y40231D01*
X28112Y40218D01*
X28116Y40208D01*
X28118Y40206D01*
X28135Y40183D01*
X28156Y40164D01*
X28177Y40148D01*
X28195Y40133D01*
X28212Y40123D01*
X28227Y40116D01*
X28235Y40112D01*
X28239Y40110D01*
X28256Y40106D01*
X28275Y40100D01*
X28295Y40098D01*
X28320Y40093D01*
X28370Y40087D01*
X28420Y40085D01*
X28468Y40083D01*
X28489Y40081D01*
X28758D01*
Y40629D01*
D02*
G37*
G36*
X26741Y40156D02*
X26727D01*
X26700Y40154D01*
X26675Y40152D01*
X26629Y40139D01*
X26587Y40121D01*
X26552Y40102D01*
X26523Y40081D01*
X26502Y40062D01*
X26496Y40056D01*
X26489Y40050D01*
X26487Y40048D01*
X26485Y40046D01*
X26469Y40025D01*
X26452Y40000D01*
X26429Y39950D01*
X26410Y39898D01*
X26400Y39846D01*
X26396Y39823D01*
X26391Y39800D01*
X26389Y39781D01*
Y39762D01*
X26387Y39750D01*
Y39737D01*
Y39731D01*
Y39729D01*
Y39691D01*
X26391Y39654D01*
X26396Y39621D01*
X26402Y39589D01*
X26410Y39562D01*
X26419Y39535D01*
X26427Y39510D01*
X26435Y39489D01*
X26446Y39471D01*
X26454Y39454D01*
X26462Y39439D01*
X26471Y39429D01*
X26477Y39421D01*
X26481Y39414D01*
X26483Y39410D01*
X26485Y39408D01*
X26504Y39389D01*
X26523Y39373D01*
X26544Y39358D01*
X26564Y39346D01*
X26604Y39327D01*
X26644Y39314D01*
X26677Y39306D01*
X26691Y39304D01*
X26702Y39302D01*
X26712Y39300D01*
X26727D01*
X26754Y39302D01*
X26779Y39304D01*
X26825Y39317D01*
X26866Y39333D01*
X26902Y39354D01*
X26929Y39375D01*
X26952Y39392D01*
X26958Y39398D01*
X26964Y39404D01*
X26966Y39406D01*
X26968Y39408D01*
X26985Y39429D01*
X27000Y39454D01*
X27025Y39504D01*
X27041Y39558D01*
X27052Y39608D01*
X27056Y39633D01*
X27060Y39656D01*
X27062Y39675D01*
Y39694D01*
X27064Y39706D01*
Y39719D01*
Y39725D01*
Y39727D01*
X27062Y39764D01*
X27060Y39800D01*
X27056Y39833D01*
X27050Y39864D01*
X27041Y39894D01*
X27033Y39919D01*
X27025Y39944D01*
X27016Y39964D01*
X27008Y39983D01*
X27000Y40000D01*
X26991Y40014D01*
X26983Y40025D01*
X26977Y40033D01*
X26973Y40041D01*
X26968Y40044D01*
Y40046D01*
X26950Y40064D01*
X26929Y40083D01*
X26910Y40098D01*
X26889Y40110D01*
X26850Y40129D01*
X26810Y40141D01*
X26777Y40150D01*
X26762Y40152D01*
X26750Y40154D01*
X26741Y40156D01*
D02*
G37*
G36*
X17272Y40654D02*
X17262D01*
X17237Y40652D01*
X17216Y40648D01*
X17195Y40639D01*
X17176Y40633D01*
X17164Y40625D01*
X17151Y40616D01*
X17145Y40612D01*
X17143Y40610D01*
X17124Y40591D01*
X17108Y40566D01*
X17093Y40539D01*
X17080Y40510D01*
X17070Y40483D01*
X17064Y40462D01*
X17062Y40454D01*
X17060Y40448D01*
X17058Y40443D01*
Y40441D01*
X17051Y40414D01*
X17045Y40385D01*
X17041Y40352D01*
X17037Y40314D01*
X17031Y40239D01*
X17026Y40162D01*
X17024Y40125D01*
Y40091D01*
X17022Y40058D01*
Y40031D01*
Y40008D01*
Y39991D01*
Y39981D01*
Y39977D01*
Y39916D01*
X17024Y39858D01*
X17026Y39806D01*
X17028Y39758D01*
X17031Y39714D01*
X17035Y39675D01*
X17039Y39639D01*
X17041Y39608D01*
X17045Y39581D01*
X17049Y39558D01*
X17053Y39539D01*
X17055Y39523D01*
X17058Y39510D01*
X17060Y39502D01*
X17062Y39498D01*
Y39496D01*
X17074Y39458D01*
X17087Y39425D01*
X17099Y39400D01*
X17114Y39379D01*
X17124Y39362D01*
X17135Y39352D01*
X17141Y39346D01*
X17143Y39344D01*
X17164Y39329D01*
X17183Y39319D01*
X17203Y39312D01*
X17222Y39308D01*
X17239Y39304D01*
X17251Y39302D01*
X17262D01*
X17287Y39304D01*
X17308Y39308D01*
X17328Y39314D01*
X17345Y39323D01*
X17360Y39331D01*
X17372Y39337D01*
X17378Y39342D01*
X17380Y39344D01*
X17399Y39362D01*
X17416Y39387D01*
X17430Y39414D01*
X17443Y39444D01*
X17453Y39469D01*
X17460Y39489D01*
X17462Y39498D01*
X17464Y39504D01*
X17466Y39508D01*
Y39510D01*
X17472Y39537D01*
X17476Y39567D01*
X17480Y39600D01*
X17485Y39637D01*
X17491Y39714D01*
X17495Y39791D01*
X17497Y39829D01*
Y39862D01*
Y39894D01*
X17499Y39923D01*
Y39946D01*
Y39962D01*
Y39973D01*
Y39977D01*
Y40037D01*
X17497Y40093D01*
X17495Y40148D01*
X17493Y40193D01*
X17491Y40237D01*
X17487Y40277D01*
X17485Y40312D01*
X17480Y40343D01*
X17476Y40371D01*
X17474Y40396D01*
X17470Y40414D01*
X17468Y40431D01*
X17466Y40443D01*
X17464Y40452D01*
X17462Y40456D01*
Y40458D01*
X17449Y40496D01*
X17437Y40529D01*
X17422Y40554D01*
X17410Y40575D01*
X17399Y40591D01*
X17389Y40602D01*
X17383Y40608D01*
X17380Y40610D01*
X17360Y40625D01*
X17341Y40635D01*
X17320Y40643D01*
X17301Y40648D01*
X17285Y40652D01*
X17272Y40654D01*
D02*
G37*
G36*
X34169Y40164D02*
X34157D01*
X34132Y40162D01*
X34109Y40160D01*
X34067Y40148D01*
X34030Y40131D01*
X33999Y40110D01*
X33974Y40089D01*
X33955Y40073D01*
X33942Y40060D01*
X33938Y40058D01*
Y40056D01*
X33922Y40035D01*
X33909Y40012D01*
X33886Y39960D01*
X33869Y39906D01*
X33859Y39854D01*
X33857Y39829D01*
X33853Y39806D01*
X33851Y39785D01*
Y39766D01*
X33849Y39752D01*
Y39741D01*
Y39733D01*
Y39731D01*
Y39689D01*
X33853Y39650D01*
X33857Y39612D01*
X33863Y39579D01*
X33869Y39548D01*
X33876Y39521D01*
X33884Y39496D01*
X33892Y39475D01*
X33901Y39454D01*
X33909Y39437D01*
X33915Y39425D01*
X33922Y39412D01*
X33928Y39404D01*
X33932Y39398D01*
X33934Y39396D01*
X33936Y39394D01*
X33953Y39375D01*
X33969Y39360D01*
X33988Y39346D01*
X34005Y39335D01*
X34040Y39317D01*
X34074Y39304D01*
X34105Y39298D01*
X34128Y39294D01*
X34136Y39292D01*
X34149D01*
X34174Y39294D01*
X34197Y39296D01*
X34242Y39308D01*
X34280Y39327D01*
X34313Y39348D01*
X34340Y39367D01*
X34361Y39385D01*
X34374Y39398D01*
X34376Y39400D01*
X34378Y39402D01*
X34394Y39425D01*
X34407Y39450D01*
X34430Y39504D01*
X34446Y39562D01*
X34457Y39619D01*
X34461Y39646D01*
X34465Y39669D01*
X34467Y39691D01*
Y39712D01*
X34469Y39727D01*
Y39739D01*
Y39748D01*
Y39750D01*
X34467Y39787D01*
X34465Y39823D01*
X34461Y39854D01*
X34455Y39885D01*
X34449Y39912D01*
X34442Y39937D01*
X34434Y39960D01*
X34426Y39981D01*
X34417Y39998D01*
X34409Y40014D01*
X34403Y40027D01*
X34396Y40039D01*
X34390Y40048D01*
X34386Y40054D01*
X34382Y40056D01*
Y40058D01*
X34365Y40077D01*
X34346Y40093D01*
X34328Y40108D01*
X34309Y40121D01*
X34271Y40139D01*
X34236Y40152D01*
X34205Y40158D01*
X34190Y40160D01*
X34180Y40162D01*
X34169Y40164D01*
D02*
G37*
%LPD*%
M02*
