G04*
G04 #@! TF.GenerationSoftware,Altium Limited,Altium Designer,20.2.6 (244)*
G04*
G04 Layer_Color=8421504*
%FSLAX24Y24*%
%MOIN*%
G70*
G04*
G04 #@! TF.SameCoordinates,601DEEF6-7E2B-4F85-A560-B3D03E394376*
G04*
G04*
G04 #@! TF.FilePolarity,Positive*
G04*
G01*
G75*
%ADD14R,0.0354X0.0315*%
%ADD15R,0.0340X0.0318*%
%ADD16R,0.0209X0.0421*%
%ADD17R,0.0318X0.0340*%
%ADD18R,0.0315X0.0315*%
%ADD19R,0.0315X0.0315*%
%ADD20R,0.0984X0.1496*%
%ADD21O,0.2000X0.0600*%
%ADD22R,0.0453X0.1260*%
%ADD23C,0.0600*%
%ADD24R,0.0315X0.0354*%
%ADD25R,0.0669X0.0860*%
G36*
X38670Y46432D02*
Y46234D01*
X38554Y46126D01*
X38446D01*
X38330Y46234D01*
Y46432D01*
X38355Y46457D01*
X38645D01*
X38670Y46432D01*
D02*
G37*
G36*
Y45770D02*
Y45572D01*
X38645Y45546D01*
X38355D01*
X38330Y45572D01*
Y45770D01*
X38446Y45878D01*
X38554D01*
X38670Y45770D01*
D02*
G37*
G36*
Y44889D02*
Y44691D01*
X38554Y44583D01*
X38446D01*
X38330Y44691D01*
Y44889D01*
X38355Y44915D01*
X38645D01*
X38670Y44889D01*
D02*
G37*
G36*
X18250Y47143D02*
X17800D01*
Y44543D01*
X14650D01*
Y47143D01*
X13950D01*
Y47743D01*
X18250D01*
Y47143D01*
D02*
G37*
G36*
X38670Y44227D02*
Y44029D01*
X38645Y44004D01*
X38355D01*
X38330Y44029D01*
Y44227D01*
X38446Y44335D01*
X38554D01*
X38670Y44227D01*
D02*
G37*
G36*
X30220Y40480D02*
Y40282D01*
X30104Y40174D01*
X29996D01*
X29880Y40282D01*
Y40480D01*
X29905Y40505D01*
X30195D01*
X30220Y40480D01*
D02*
G37*
G36*
X29270Y40399D02*
Y40283D01*
X29154Y40124D01*
X29046D01*
X28930Y40283D01*
Y40399D01*
X28955Y40424D01*
X29245D01*
X29270Y40399D01*
D02*
G37*
G36*
X30220Y39818D02*
Y39620D01*
X30195Y39595D01*
X29905D01*
X29880Y39620D01*
Y39818D01*
X29996Y39926D01*
X30104D01*
X30220Y39818D01*
D02*
G37*
G36*
X29270Y39717D02*
Y39601D01*
X29245Y39576D01*
X28955D01*
X28930Y39601D01*
Y39717D01*
X29046Y39876D01*
X29154D01*
X29270Y39717D01*
D02*
G37*
G36*
X30220Y38475D02*
Y38358D01*
X30104Y38200D01*
X29996D01*
X29880Y38358D01*
Y38475D01*
X29905Y38500D01*
X30195D01*
X30220Y38475D01*
D02*
G37*
G36*
X13005Y38445D02*
Y38155D01*
X12980Y38130D01*
X12782D01*
X12674Y38246D01*
Y38354D01*
X12782Y38470D01*
X12980D01*
X13005Y38445D01*
D02*
G37*
G36*
X12426Y38354D02*
Y38246D01*
X12318Y38130D01*
X12120D01*
X12095Y38155D01*
Y38445D01*
X12120Y38470D01*
X12318D01*
X12426Y38354D01*
D02*
G37*
G36*
X30220Y37793D02*
Y37676D01*
X30195Y37651D01*
X29905D01*
X29880Y37676D01*
Y37793D01*
X29996Y37952D01*
X30104D01*
X30220Y37793D01*
D02*
G37*
G36*
X22620Y34999D02*
Y34883D01*
X22504Y34724D01*
X22396D01*
X22280Y34883D01*
Y34999D01*
X22305Y35024D01*
X22595D01*
X22620Y34999D01*
D02*
G37*
G36*
X21520D02*
Y34883D01*
X21404Y34724D01*
X21296D01*
X21180Y34883D01*
Y34999D01*
X21205Y35024D01*
X21495D01*
X21520Y34999D01*
D02*
G37*
G36*
X20370D02*
Y34883D01*
X20254Y34724D01*
X20146D01*
X20030Y34883D01*
Y34999D01*
X20055Y35024D01*
X20345D01*
X20370Y34999D01*
D02*
G37*
G36*
X31855Y34495D02*
Y34205D01*
X31830Y34180D01*
X31632D01*
X31524Y34296D01*
Y34404D01*
X31632Y34520D01*
X31830D01*
X31855Y34495D01*
D02*
G37*
G36*
X31276Y34404D02*
Y34296D01*
X31168Y34180D01*
X30970D01*
X30945Y34205D01*
Y34495D01*
X30970Y34520D01*
X31168D01*
X31276Y34404D01*
D02*
G37*
G36*
X22620Y34317D02*
Y34201D01*
X22595Y34176D01*
X22305D01*
X22280Y34201D01*
Y34317D01*
X22396Y34476D01*
X22504D01*
X22620Y34317D01*
D02*
G37*
G36*
X21520D02*
Y34201D01*
X21495Y34176D01*
X21205D01*
X21180Y34201D01*
Y34317D01*
X21296Y34476D01*
X21404D01*
X21520Y34317D01*
D02*
G37*
G36*
X20370D02*
Y34201D01*
X20345Y34176D01*
X20055D01*
X20030Y34201D01*
Y34317D01*
X20146Y34476D01*
X20254D01*
X20370Y34317D01*
D02*
G37*
G36*
X39465Y34195D02*
Y33905D01*
X39439Y33880D01*
X39241D01*
X39133Y33996D01*
Y34104D01*
X39241Y34220D01*
X39439D01*
X39465Y34195D01*
D02*
G37*
G36*
X38885Y34104D02*
Y33996D01*
X38777Y33880D01*
X38579D01*
X38554Y33905D01*
Y34195D01*
X38579Y34220D01*
X38777D01*
X38885Y34104D01*
D02*
G37*
G36*
X30055Y33345D02*
Y33055D01*
X30030Y33030D01*
X29832D01*
X29724Y33146D01*
Y33254D01*
X29832Y33370D01*
X30030D01*
X30055Y33345D01*
D02*
G37*
G36*
X29476Y33254D02*
Y33146D01*
X29368Y33030D01*
X29170D01*
X29145Y33055D01*
Y33345D01*
X29170Y33370D01*
X29368D01*
X29476Y33254D01*
D02*
G37*
G36*
X31805Y32445D02*
Y32155D01*
X31780Y32130D01*
X31582D01*
X31474Y32246D01*
Y32354D01*
X31582Y32470D01*
X31780D01*
X31805Y32445D01*
D02*
G37*
G36*
X31226Y32354D02*
Y32246D01*
X31118Y32130D01*
X30920D01*
X30895Y32155D01*
Y32445D01*
X30920Y32470D01*
X31118D01*
X31226Y32354D01*
D02*
G37*
G36*
X30055Y32445D02*
Y32155D01*
X30030Y32130D01*
X29832D01*
X29724Y32246D01*
Y32354D01*
X29832Y32470D01*
X30030D01*
X30055Y32445D01*
D02*
G37*
G36*
X29476Y32354D02*
Y32246D01*
X29368Y32130D01*
X29170D01*
X29145Y32155D01*
Y32445D01*
X29170Y32470D01*
X29368D01*
X29476Y32354D01*
D02*
G37*
G36*
X22774Y32245D02*
Y31955D01*
X22749Y31930D01*
X22633D01*
X22474Y32046D01*
Y32154D01*
X22633Y32270D01*
X22749D01*
X22774Y32245D01*
D02*
G37*
G36*
X22226Y32154D02*
Y32046D01*
X22067Y31930D01*
X21951D01*
X21926Y31955D01*
Y32245D01*
X21951Y32270D01*
X22067D01*
X22226Y32154D01*
D02*
G37*
G36*
X20774Y32245D02*
Y31955D01*
X20749Y31930D01*
X20633D01*
X20474Y32046D01*
Y32154D01*
X20633Y32270D01*
X20749D01*
X20774Y32245D01*
D02*
G37*
G36*
X20226Y32154D02*
Y32046D01*
X20067Y31930D01*
X19951D01*
X19926Y31955D01*
Y32245D01*
X19951Y32270D01*
X20067D01*
X20226Y32154D01*
D02*
G37*
D14*
X21350Y34324D02*
D03*
Y34876D02*
D03*
X20200Y34324D02*
D03*
Y34876D02*
D03*
X30050Y38351D02*
D03*
Y37800D02*
D03*
X22450Y34324D02*
D03*
Y34876D02*
D03*
X29100Y40276D02*
D03*
Y39724D02*
D03*
D15*
X30050Y39753D02*
D03*
Y40347D02*
D03*
X38500Y46298D02*
D03*
Y45705D02*
D03*
Y44163D02*
D03*
Y44756D02*
D03*
D16*
X29974Y34997D02*
D03*
X29226D02*
D03*
X29600Y34103D02*
D03*
D17*
X31103Y34350D02*
D03*
X31697D02*
D03*
X31053Y32300D02*
D03*
X31647D02*
D03*
X29303Y33200D02*
D03*
X29897D02*
D03*
X29303Y32300D02*
D03*
X29897D02*
D03*
X38713Y34050D02*
D03*
X39306D02*
D03*
X12253Y38300D02*
D03*
X12847D02*
D03*
D18*
X38696Y32199D02*
D03*
X39326Y32201D02*
D03*
X39365Y33141D02*
D03*
X38735Y33138D02*
D03*
X12865Y36601D02*
D03*
X12235Y36599D02*
D03*
D19*
X39401Y45685D02*
D03*
X39399Y46315D02*
D03*
X39401Y44135D02*
D03*
X39399Y44765D02*
D03*
D20*
X17152Y38900D02*
D03*
X14948D02*
D03*
D21*
X20050Y45300D02*
D03*
X23550D02*
D03*
X18150Y33900D02*
D03*
X14650D02*
D03*
X26550Y45300D02*
D03*
X30050D02*
D03*
D22*
X14760Y42200D02*
D03*
X16100D02*
D03*
X15430D02*
D03*
X16770D02*
D03*
X17440D02*
D03*
D23*
X16150Y47300D02*
D03*
D24*
X20626Y32100D02*
D03*
X20074D02*
D03*
X22074D02*
D03*
X22626D02*
D03*
D25*
X20993Y39666D02*
D03*
Y37934D02*
D03*
X19350D02*
D03*
Y39666D02*
D03*
X22650Y37934D02*
D03*
Y39666D02*
D03*
M02*
