G04*
G04 #@! TF.GenerationSoftware,Altium Limited,Altium Designer,20.2.6 (244)*
G04*
G04 Layer_Color=32896*
%FSLAX24Y24*%
%MOIN*%
G70*
G04*
G04 #@! TF.SameCoordinates,601DEEF6-7E2B-4F85-A560-B3D03E394376*
G04*
G04*
G04 #@! TF.FilePolarity,Positive*
G04*
G01*
G75*
G36*
X38657Y45687D02*
X38343D01*
Y46317D01*
X38657D01*
Y45687D01*
D02*
G37*
G36*
Y44144D02*
X38343D01*
Y44774D01*
X38657D01*
Y44144D01*
D02*
G37*
G36*
X30207Y39735D02*
X29893D01*
Y40365D01*
X30207D01*
Y39735D01*
D02*
G37*
G36*
X29257Y39685D02*
X28943D01*
Y40315D01*
X29257D01*
Y39685D01*
D02*
G37*
G36*
X12865Y38143D02*
X12235D01*
Y38457D01*
X12865D01*
Y38143D01*
D02*
G37*
G36*
X30207Y37761D02*
X29893D01*
Y38391D01*
X30207D01*
Y37761D01*
D02*
G37*
G36*
X22607Y34285D02*
X22293D01*
Y34915D01*
X22607D01*
Y34285D01*
D02*
G37*
G36*
X21507D02*
X21193D01*
Y34915D01*
X21507D01*
Y34285D01*
D02*
G37*
G36*
X20357D02*
X20043D01*
Y34915D01*
X20357D01*
Y34285D01*
D02*
G37*
G36*
X30175Y34235D02*
X29025D01*
Y34865D01*
X30175D01*
Y34235D01*
D02*
G37*
G36*
X31715Y34193D02*
X31085D01*
Y34507D01*
X31715D01*
Y34193D01*
D02*
G37*
G36*
X39324Y33893D02*
X38694D01*
Y34207D01*
X39324D01*
Y33893D01*
D02*
G37*
G36*
X29915Y33043D02*
X29285D01*
Y33357D01*
X29915D01*
Y33043D01*
D02*
G37*
G36*
X31665Y32143D02*
X31035D01*
Y32457D01*
X31665D01*
Y32143D01*
D02*
G37*
G36*
X29915D02*
X29285D01*
Y32457D01*
X29915D01*
Y32143D01*
D02*
G37*
G36*
X22665Y31943D02*
X22035D01*
Y32257D01*
X22665D01*
Y31943D01*
D02*
G37*
G36*
X20665D02*
X20035D01*
Y32257D01*
X20665D01*
Y31943D01*
D02*
G37*
M02*
