G04*
G04 #@! TF.GenerationSoftware,Altium Limited,Altium Designer,20.2.6 (244)*
G04*
G04 Layer_Physical_Order=1*
G04 Layer_Color=255*
%FSLAX24Y24*%
%MOIN*%
G70*
G04*
G04 #@! TF.SameCoordinates,601DEEF6-7E2B-4F85-A560-B3D03E394376*
G04*
G04*
G04 #@! TF.FilePolarity,Positive*
G04*
G01*
G75*
%ADD10C,0.0100*%
%ADD14R,0.0354X0.0315*%
%ADD15R,0.0340X0.0318*%
%ADD16R,0.0209X0.0421*%
%ADD17R,0.0318X0.0340*%
%ADD18R,0.0315X0.0315*%
%ADD19R,0.0315X0.0315*%
%ADD20R,0.0984X0.1496*%
%ADD21O,0.2000X0.0600*%
%ADD22R,0.0453X0.1260*%
%ADD23C,0.0600*%
%ADD24R,0.0315X0.0354*%
%ADD25R,0.0669X0.0860*%
%ADD42C,0.0400*%
%ADD43C,0.0300*%
%ADD44C,0.0150*%
%ADD45R,0.0600X0.0600*%
%ADD46C,0.0591*%
%ADD47R,0.0591X0.0591*%
%ADD48R,0.0600X0.0600*%
%ADD49C,0.0500*%
%ADD50C,0.0400*%
G36*
X41400Y30803D02*
X41351Y30800D01*
X11400D01*
Y48800D01*
X41400D01*
Y30803D01*
D02*
G37*
%LPC*%
G36*
X35450Y47840D02*
X35450Y47840D01*
X32000D01*
X32000Y47840D01*
X31908Y47821D01*
X31831Y47769D01*
X30431Y46369D01*
X30379Y46292D01*
X30360Y46200D01*
X30360Y46200D01*
Y45638D01*
X29350D01*
X29263Y45626D01*
X29181Y45593D01*
X29111Y45539D01*
X29057Y45469D01*
X29024Y45387D01*
X29012Y45301D01*
X27601Y43890D01*
X24881D01*
X24881Y43890D01*
X24790Y43871D01*
X24712Y43819D01*
X24712Y43819D01*
X21024Y40131D01*
X20623D01*
Y39201D01*
X21362D01*
Y39792D01*
X24980Y43410D01*
X27700D01*
X27700Y43410D01*
X27792Y43429D01*
X27869Y43481D01*
X29351Y44962D01*
X30750D01*
X30837Y44974D01*
X30919Y45007D01*
X30989Y45061D01*
X31043Y45131D01*
X31076Y45213D01*
X31088Y45300D01*
X31076Y45387D01*
X31043Y45469D01*
X30989Y45539D01*
X30919Y45593D01*
X30840Y45625D01*
Y46101D01*
X32099Y47360D01*
X35351D01*
X36160Y46551D01*
Y45100D01*
X36160Y45100D01*
X36179Y45008D01*
X36231Y44931D01*
X36912Y44249D01*
X36924Y44163D01*
X36957Y44081D01*
X37011Y44011D01*
X37081Y43957D01*
X37163Y43924D01*
X37250Y43912D01*
X37337Y43924D01*
X37419Y43957D01*
X37488Y44010D01*
X38295D01*
Y43969D01*
X38367D01*
X38408Y43941D01*
X38500Y43923D01*
X38592Y43941D01*
X38633Y43969D01*
X38705D01*
Y44047D01*
X38721Y44071D01*
X38740Y44163D01*
X38721Y44254D01*
X38705Y44279D01*
Y44357D01*
X38645D01*
X38582Y44419D01*
X38504Y44471D01*
X38413Y44490D01*
X38413Y44490D01*
X37488D01*
X37419Y44543D01*
X37337Y44576D01*
X37251Y44588D01*
X36640Y45199D01*
Y46650D01*
X36640Y46650D01*
X36621Y46742D01*
X36569Y46819D01*
X35619Y47769D01*
X35542Y47821D01*
X35450Y47840D01*
D02*
G37*
G36*
X36100Y48590D02*
X36100Y48590D01*
X23800D01*
X23708Y48571D01*
X23631Y48519D01*
X23631Y48519D01*
X20749Y45638D01*
X19350D01*
X19263Y45626D01*
X19181Y45593D01*
X19111Y45539D01*
X19057Y45469D01*
X19024Y45387D01*
X19012Y45300D01*
X19024Y45213D01*
X19057Y45131D01*
X19111Y45061D01*
X19181Y45007D01*
X19263Y44974D01*
X19350Y44962D01*
X19861D01*
Y40540D01*
X19453Y40131D01*
X18980D01*
Y39201D01*
X19720D01*
Y39865D01*
X20183Y40328D01*
X20183Y40328D01*
X20378Y40523D01*
X20778D01*
X20806Y40501D01*
X20876Y40472D01*
X20950Y40463D01*
X21024Y40472D01*
X21094Y40501D01*
X21153Y40547D01*
X21199Y40606D01*
X21228Y40676D01*
X21237Y40750D01*
X21228Y40824D01*
X21199Y40894D01*
X21153Y40953D01*
X21094Y40999D01*
X21024Y41028D01*
X20950Y41037D01*
X20876Y41028D01*
X20806Y40999D01*
X20747Y40953D01*
X20706Y40900D01*
X20300D01*
X20289Y40898D01*
X20239Y40939D01*
Y44962D01*
X20750D01*
X20837Y44974D01*
X20919Y45007D01*
X20989Y45061D01*
X21043Y45131D01*
X21076Y45213D01*
X21088Y45299D01*
X23899Y48110D01*
X36001D01*
X37010Y47101D01*
Y46585D01*
X36915D01*
Y45915D01*
X37585D01*
Y46061D01*
X38452D01*
X38524Y46076D01*
X38567Y46104D01*
X38705D01*
Y46492D01*
X38295D01*
Y46439D01*
X37585D01*
Y46585D01*
X37490D01*
Y47200D01*
X37490Y47200D01*
X37471Y47292D01*
X37419Y47369D01*
X37419Y47369D01*
X36269Y48519D01*
X36192Y48571D01*
X36100Y48590D01*
D02*
G37*
G36*
X38705Y45899D02*
X38295D01*
Y45511D01*
X38705D01*
Y45618D01*
X39209D01*
Y45493D01*
X39594D01*
Y45878D01*
X39209D01*
Y45792D01*
X38705D01*
Y45899D01*
D02*
G37*
G36*
X35035Y46635D02*
X34365D01*
Y45965D01*
X34460D01*
Y45538D01*
X34407Y45469D01*
X34374Y45387D01*
X34362Y45300D01*
X34374Y45213D01*
X34407Y45131D01*
X34461Y45061D01*
X34531Y45007D01*
X34613Y44974D01*
X34700Y44962D01*
X34787Y44974D01*
X34869Y45007D01*
X34939Y45061D01*
X34993Y45131D01*
X35026Y45213D01*
X35038Y45300D01*
X35026Y45387D01*
X34993Y45469D01*
X34940Y45538D01*
Y45965D01*
X35035D01*
Y46635D01*
D02*
G37*
G36*
X39591Y44957D02*
X39206D01*
Y44843D01*
X38705D01*
Y44950D01*
X38295D01*
Y44562D01*
X38705D01*
Y44669D01*
X39206D01*
Y44572D01*
X39591D01*
Y44957D01*
D02*
G37*
G36*
X18250Y47781D02*
X13950D01*
X13923Y47770D01*
X13912Y47743D01*
Y47143D01*
X13923Y47116D01*
X13950Y47105D01*
X14612D01*
Y44543D01*
X14623Y44516D01*
X14650Y44505D01*
X17800D01*
X17827Y44516D01*
X17838Y44543D01*
Y47105D01*
X18250D01*
X18277Y47116D01*
X18288Y47143D01*
Y47743D01*
X18277Y47770D01*
X18250Y47781D01*
D02*
G37*
G36*
X19300Y44347D02*
X19226Y44338D01*
X19156Y44309D01*
X19119Y44280D01*
X18877D01*
X18786Y44262D01*
X18708Y44210D01*
X18708Y44210D01*
X17363Y42865D01*
X17179D01*
Y41535D01*
X17701D01*
Y42526D01*
X18977Y43801D01*
X19180D01*
X19226Y43782D01*
X19300Y43773D01*
X19374Y43782D01*
X19444Y43811D01*
X19503Y43857D01*
X19549Y43916D01*
X19578Y43986D01*
X19587Y44060D01*
X19578Y44134D01*
X19549Y44204D01*
X19503Y44263D01*
X19444Y44309D01*
X19374Y44338D01*
X19300Y44347D01*
D02*
G37*
G36*
X16650Y43312D02*
X16650Y43312D01*
X15669D01*
X15669Y43312D01*
X15626Y43304D01*
X15590Y43279D01*
X15590Y43279D01*
X15502Y43191D01*
X15478Y43155D01*
X15469Y43112D01*
X15469Y43112D01*
Y42865D01*
X15169D01*
Y41738D01*
X15021D01*
X14995Y41727D01*
X14984Y41700D01*
Y41573D01*
X14536D01*
Y41700D01*
X14525Y41727D01*
X14499Y41738D01*
X12289D01*
X12287Y41737D01*
X12286Y41738D01*
X12280Y41735D01*
X12215D01*
Y41065D01*
X12319D01*
X12373Y40741D01*
X12374Y40739D01*
X12374Y40737D01*
X12382Y40727D01*
X12389Y40716D01*
X12391Y40716D01*
X12392Y40714D01*
X12436Y40690D01*
X12438Y40690D01*
X12440Y40688D01*
X12452D01*
X12465Y40687D01*
X12467Y40688D01*
X12469D01*
X12472Y40689D01*
X12550Y40700D01*
X12628Y40689D01*
X12700Y40660D01*
X12762Y40612D01*
X12810Y40550D01*
X12839Y40478D01*
X12850Y40400D01*
X12839Y40322D01*
X12810Y40250D01*
X12762Y40188D01*
X12700Y40140D01*
X12628Y40111D01*
X12571Y40103D01*
X12560Y40097D01*
X12548Y40091D01*
X12505Y40044D01*
X12505Y40042D01*
X12502Y40041D01*
X12500Y40029D01*
X12496Y40017D01*
X12497Y40015D01*
X12496Y40012D01*
X12744Y38543D01*
X12711Y38505D01*
X12653D01*
Y38095D01*
X12819D01*
X12963Y37244D01*
X12968Y37235D01*
X12971Y37226D01*
X13522Y36574D01*
X13524Y36573D01*
X13525Y36572D01*
X16962Y33134D01*
Y31950D01*
X16973Y31923D01*
X17000Y31912D01*
X19300D01*
X19327Y31923D01*
X19338Y31950D01*
Y32632D01*
X19384Y32651D01*
X19882Y32154D01*
Y31888D01*
X20267D01*
Y32312D01*
X20041D01*
X18931Y33421D01*
Y33573D01*
X18937Y33574D01*
X19019Y33607D01*
X19089Y33661D01*
X19128Y33711D01*
X19372D01*
X19915Y33168D01*
X19913Y33150D01*
X19922Y33076D01*
X19951Y33006D01*
X19997Y32947D01*
X20056Y32901D01*
X20126Y32872D01*
X20200Y32863D01*
X20274Y32872D01*
X20344Y32901D01*
X20403Y32947D01*
X20449Y33006D01*
X20478Y33076D01*
X20487Y33150D01*
X20478Y33224D01*
X20449Y33294D01*
X20403Y33353D01*
X20344Y33399D01*
X20274Y33428D01*
X20200Y33437D01*
X20182Y33435D01*
X19583Y34033D01*
X19522Y34074D01*
X19450Y34089D01*
X19338D01*
Y36200D01*
X19327Y36227D01*
X19300Y36238D01*
X16616D01*
X15688Y37166D01*
Y41535D01*
X15691D01*
Y42341D01*
X15694Y42351D01*
X15694Y42351D01*
Y43066D01*
X15716Y43088D01*
X16604D01*
X16658Y43034D01*
Y42865D01*
X16509D01*
Y41660D01*
X16462Y41641D01*
X16361Y41742D01*
Y42865D01*
X15839D01*
Y41535D01*
X15954D01*
X16625Y38180D01*
Y38117D01*
X16638D01*
X16763Y37493D01*
X16769Y37483D01*
X16773Y37473D01*
X16823Y37423D01*
X16850Y37412D01*
X19550D01*
X19557Y37415D01*
X19565D01*
X19570Y37420D01*
X19577Y37423D01*
X19600Y37431D01*
X19634Y37432D01*
X20713Y36352D01*
Y34855D01*
X20720Y34822D01*
X20739Y34793D01*
X21138Y34394D01*
Y34132D01*
X21562D01*
Y34517D01*
X21260D01*
X21144Y34633D01*
X21165Y34683D01*
X21176Y34683D01*
X21176Y34683D01*
X21177Y34683D01*
X21562D01*
Y35068D01*
X21437D01*
Y36500D01*
X21430Y36533D01*
X21411Y36561D01*
X21080Y36893D01*
Y37469D01*
X21362D01*
Y37694D01*
X22280D01*
Y37469D01*
X23020D01*
Y38399D01*
X22280D01*
Y38173D01*
X21362D01*
Y38399D01*
X20623D01*
Y37469D01*
X20906D01*
Y36857D01*
X20913Y36824D01*
X20932Y36796D01*
X21263Y36464D01*
Y35068D01*
X21138D01*
X21138Y34722D01*
Y34721D01*
Y34721D01*
X21138Y34710D01*
X21119Y34702D01*
X21088Y34689D01*
X20887Y34891D01*
Y36388D01*
X20880Y36422D01*
X20861Y36450D01*
X19720Y37591D01*
Y37646D01*
X19720Y37647D01*
X19727Y37649D01*
X19730Y37656D01*
X19735Y37662D01*
Y37669D01*
X19738Y37676D01*
Y38350D01*
X19727Y38377D01*
X19720Y38384D01*
Y38399D01*
X19705D01*
X16615Y41489D01*
X16634Y41535D01*
X17031D01*
Y42865D01*
X16882D01*
Y43080D01*
X16882Y43080D01*
X16874Y43123D01*
X16849Y43159D01*
X16849Y43159D01*
X16729Y43279D01*
X16693Y43304D01*
X16650Y43312D01*
D02*
G37*
G36*
X34700Y44638D02*
X34613Y44626D01*
X34531Y44593D01*
X34461Y44539D01*
X34407Y44469D01*
X34374Y44387D01*
X34362Y44301D01*
X31901Y41840D01*
X27650D01*
X27650Y41840D01*
X27558Y41821D01*
X27481Y41769D01*
X24693Y38982D01*
X24614Y38972D01*
X24533Y38938D01*
X24464Y38886D01*
X24412Y38817D01*
X24378Y38736D01*
X24367Y38650D01*
X24378Y38564D01*
X24412Y38483D01*
X24464Y38414D01*
X24533Y38362D01*
X24614Y38328D01*
X24700Y38317D01*
X24786Y38328D01*
X24867Y38362D01*
X24936Y38414D01*
X24988Y38483D01*
X25022Y38564D01*
X25032Y38643D01*
X27749Y41360D01*
X31428D01*
X31447Y41314D01*
X30305Y40172D01*
X30255Y40193D01*
Y40540D01*
X29845D01*
Y40464D01*
X29312D01*
Y40468D01*
X28888D01*
Y40464D01*
X28153D01*
X28153Y40464D01*
X28025Y40591D01*
X28033Y40650D01*
X28022Y40736D01*
X27988Y40817D01*
X27936Y40886D01*
X27867Y40938D01*
X27786Y40972D01*
X27700Y40983D01*
X27614Y40972D01*
X27533Y40938D01*
X27464Y40886D01*
X27412Y40817D01*
X27378Y40736D01*
X27367Y40650D01*
X27375Y40591D01*
X24759Y37975D01*
X24700Y37983D01*
X24614Y37972D01*
X24533Y37938D01*
X24464Y37886D01*
X24412Y37817D01*
X24378Y37736D01*
X24367Y37650D01*
X24375Y37591D01*
X23817Y37033D01*
X23776Y36972D01*
X23761Y36900D01*
Y34850D01*
X23776Y34778D01*
X23817Y34717D01*
X24375Y34159D01*
X24367Y34100D01*
X24378Y34014D01*
X24412Y33933D01*
X24464Y33864D01*
X24511Y33828D01*
Y33372D01*
X24464Y33336D01*
X24412Y33267D01*
X24378Y33186D01*
X24367Y33100D01*
X24375Y33041D01*
X23622Y32289D01*
X22818D01*
Y32312D01*
X22433D01*
Y31888D01*
X22818D01*
Y31911D01*
X23700D01*
X23772Y31926D01*
X23833Y31967D01*
X24641Y32775D01*
X24700Y32767D01*
X24786Y32778D01*
X24867Y32812D01*
X24936Y32864D01*
X24988Y32933D01*
X25022Y33014D01*
X25033Y33100D01*
X25022Y33186D01*
X24988Y33267D01*
X24936Y33336D01*
X24889Y33372D01*
Y33828D01*
X24936Y33864D01*
X24988Y33933D01*
X25022Y34014D01*
X25033Y34100D01*
X25022Y34186D01*
X24988Y34267D01*
X24936Y34336D01*
X24867Y34388D01*
X24786Y34422D01*
X24700Y34433D01*
X24641Y34425D01*
X24139Y34928D01*
Y36822D01*
X24641Y37325D01*
X24700Y37317D01*
X24786Y37328D01*
X24867Y37362D01*
X24936Y37414D01*
X24988Y37483D01*
X25022Y37564D01*
X25033Y37650D01*
X25025Y37709D01*
X27641Y40325D01*
X27700Y40317D01*
X27759Y40325D01*
X27980Y40103D01*
X27980Y40103D01*
X28039Y40044D01*
Y39825D01*
X27989Y39815D01*
X27988Y39817D01*
X27936Y39886D01*
X27867Y39938D01*
X27786Y39972D01*
X27700Y39983D01*
X27614Y39972D01*
X27533Y39938D01*
X27464Y39886D01*
X27412Y39817D01*
X27378Y39736D01*
X27367Y39650D01*
X27372Y39609D01*
X27000Y39238D01*
X26948Y39160D01*
X26930Y39068D01*
X26930Y39068D01*
Y36780D01*
X26930Y36780D01*
X26948Y36689D01*
X27000Y36611D01*
X28120Y35491D01*
X28122Y35476D01*
X28151Y35406D01*
X28197Y35347D01*
X28256Y35301D01*
X28326Y35272D01*
X28400Y35263D01*
X28474Y35272D01*
X28544Y35301D01*
X28603Y35347D01*
X28649Y35406D01*
X28678Y35476D01*
X28687Y35550D01*
X28678Y35624D01*
X28649Y35694D01*
X28603Y35753D01*
X28544Y35799D01*
X28474Y35828D01*
X28459Y35830D01*
X27409Y36880D01*
Y38404D01*
X27459Y38421D01*
X27464Y38414D01*
X27533Y38362D01*
X27614Y38328D01*
X27700Y38317D01*
X27786Y38328D01*
X27867Y38362D01*
X27930Y38410D01*
X29652D01*
X29838Y38224D01*
Y38159D01*
X29915D01*
X29958Y38130D01*
X30050Y38112D01*
X30142Y38130D01*
X30185Y38159D01*
X30262D01*
Y38246D01*
X30271Y38259D01*
X30290Y38351D01*
X30271Y38443D01*
X30262Y38457D01*
Y38544D01*
X30196D01*
X29921Y38819D01*
X29858Y38861D01*
X29873Y38911D01*
X31786D01*
X31797Y38897D01*
X31811Y38886D01*
Y34732D01*
X31635Y34555D01*
X31503D01*
Y34145D01*
X31890D01*
Y34277D01*
X32133Y34520D01*
X32174Y34581D01*
X32189Y34653D01*
Y38886D01*
X32203Y38897D01*
X32249Y38956D01*
X32278Y39026D01*
X32287Y39100D01*
X32278Y39174D01*
X32249Y39244D01*
X32203Y39303D01*
X32144Y39349D01*
X32074Y39378D01*
X32000Y39387D01*
X31926Y39378D01*
X31856Y39349D01*
X31797Y39303D01*
X31786Y39289D01*
X28778D01*
X28416Y39650D01*
Y40087D01*
X28888D01*
Y40083D01*
X29312D01*
Y40087D01*
X29968D01*
X30040Y40101D01*
X30101Y40142D01*
X30112Y40153D01*
X30215D01*
X30236Y40103D01*
X30084Y39951D01*
X30059D01*
X30041Y39947D01*
X29845D01*
Y39560D01*
X30255D01*
Y39602D01*
X30296Y39629D01*
X32034Y41367D01*
X32092Y41379D01*
X32169Y41431D01*
X34701Y43962D01*
X34787Y43974D01*
X34869Y44007D01*
X34939Y44061D01*
X34993Y44131D01*
X35026Y44213D01*
X35038Y44300D01*
X35026Y44387D01*
X34993Y44469D01*
X34939Y44539D01*
X34869Y44593D01*
X34787Y44626D01*
X34700Y44638D01*
D02*
G37*
G36*
X35150Y40438D02*
X35063Y40426D01*
X34981Y40393D01*
X34911Y40339D01*
X34857Y40269D01*
X34824Y40187D01*
X34812Y40100D01*
X34824Y40013D01*
X34857Y39931D01*
X34911Y39861D01*
X34981Y39807D01*
X35063Y39774D01*
X35150Y39762D01*
X35237Y39774D01*
X35319Y39807D01*
X35389Y39861D01*
X35443Y39931D01*
X35476Y40013D01*
X35488Y40100D01*
X35476Y40187D01*
X35443Y40269D01*
X35389Y40339D01*
X35319Y40393D01*
X35237Y40426D01*
X35150Y40438D01*
D02*
G37*
G36*
X24700Y39983D02*
X24614Y39972D01*
X24533Y39938D01*
X24464Y39886D01*
X24412Y39817D01*
X24378Y39736D01*
X24367Y39650D01*
X24378Y39564D01*
X24412Y39483D01*
X24464Y39414D01*
X24533Y39362D01*
X24614Y39328D01*
X24700Y39317D01*
X24786Y39328D01*
X24867Y39362D01*
X24936Y39414D01*
X24988Y39483D01*
X25022Y39564D01*
X25033Y39650D01*
X25022Y39736D01*
X24988Y39817D01*
X24936Y39886D01*
X24867Y39938D01*
X24786Y39972D01*
X24700Y39983D01*
D02*
G37*
G36*
X35150Y39438D02*
X35063Y39426D01*
X34981Y39393D01*
X34911Y39339D01*
X34857Y39269D01*
X34824Y39187D01*
X34812Y39100D01*
X34824Y39013D01*
X34857Y38931D01*
X34911Y38861D01*
X34981Y38807D01*
X35063Y38774D01*
X35150Y38762D01*
X35237Y38774D01*
X35319Y38807D01*
X35389Y38861D01*
X35443Y38931D01*
X35476Y39013D01*
X35488Y39100D01*
X35476Y39187D01*
X35443Y39269D01*
X35389Y39339D01*
X35319Y39393D01*
X35237Y39426D01*
X35150Y39438D01*
D02*
G37*
G36*
X35485Y38435D02*
X34815D01*
Y37765D01*
X35485D01*
Y38435D01*
D02*
G37*
G36*
X12253Y38540D02*
X12162Y38521D01*
X12137Y38505D01*
X12060D01*
Y38433D01*
X12032Y38392D01*
X12014Y38300D01*
Y36690D01*
X11996Y36599D01*
X12014Y36507D01*
X12043Y36464D01*
Y36406D01*
X12100D01*
X12144Y36377D01*
X12235Y36359D01*
X12327Y36377D01*
X12370Y36406D01*
X12428D01*
Y36455D01*
X12475Y36525D01*
X12493Y36617D01*
X12493Y36617D01*
Y38300D01*
X12475Y38392D01*
X12447Y38433D01*
Y38505D01*
X12370D01*
X12345Y38521D01*
X12253Y38540D01*
D02*
G37*
G36*
X30997Y35284D02*
X30922Y35274D01*
X30853Y35246D01*
X30841Y35236D01*
X30114D01*
Y35242D01*
X29834D01*
Y35186D01*
X29805Y35166D01*
X29753Y35088D01*
X29734Y34997D01*
X29753Y34905D01*
X29805Y34827D01*
X29834Y34808D01*
Y34751D01*
X30114D01*
Y34757D01*
X30841D01*
X30853Y34748D01*
X30922Y34719D01*
X30997Y34709D01*
X31071Y34719D01*
X31141Y34748D01*
X31200Y34794D01*
X31246Y34853D01*
X31274Y34922D01*
X31284Y34997D01*
X31274Y35071D01*
X31246Y35141D01*
X31200Y35200D01*
X31141Y35246D01*
X31071Y35274D01*
X30997Y35284D01*
D02*
G37*
G36*
X25030Y35430D02*
X24370D01*
Y34770D01*
X25030D01*
Y35430D01*
D02*
G37*
G36*
X24700Y40983D02*
X24614Y40972D01*
X24533Y40938D01*
X24464Y40886D01*
X24412Y40817D01*
X24378Y40736D01*
X24368Y40657D01*
X23146Y39434D01*
X23094Y39357D01*
X23075Y39265D01*
X23075Y39265D01*
Y35840D01*
X22304Y35068D01*
X22238D01*
Y34981D01*
X22229Y34967D01*
X22210Y34876D01*
X22229Y34784D01*
X22238Y34770D01*
Y34683D01*
X22315D01*
X22358Y34654D01*
X22450Y34636D01*
X22542Y34654D01*
X22585Y34683D01*
X22662D01*
Y34749D01*
X23484Y35571D01*
X23484Y35571D01*
X23536Y35649D01*
X23555Y35741D01*
X23555Y35741D01*
Y39166D01*
X24707Y40318D01*
X24786Y40328D01*
X24867Y40362D01*
X24936Y40414D01*
X24988Y40483D01*
X25022Y40564D01*
X25033Y40650D01*
X25022Y40736D01*
X24988Y40817D01*
X24936Y40886D01*
X24867Y40938D01*
X24786Y40972D01*
X24700Y40983D01*
D02*
G37*
G36*
X30732Y34590D02*
X30640Y34571D01*
X30562Y34519D01*
X30562Y34519D01*
X30396Y34353D01*
X29611D01*
X29611Y34353D01*
X29587Y34349D01*
X29460D01*
Y34296D01*
X29441Y34283D01*
X29441Y34283D01*
X29431Y34273D01*
X29379Y34195D01*
X29360Y34103D01*
X29379Y34011D01*
X29431Y33934D01*
X29460Y33914D01*
Y33857D01*
X29513D01*
X29526Y33838D01*
X29657Y33707D01*
Y33200D01*
X29675Y33108D01*
X29703Y33067D01*
Y32995D01*
X29780D01*
X29805Y32979D01*
X29897Y32960D01*
X29988Y32979D01*
X30013Y32995D01*
X30090D01*
Y33067D01*
X30118Y33108D01*
X30136Y33200D01*
Y33807D01*
X30136Y33807D01*
X30130Y33835D01*
X30162Y33874D01*
X30495D01*
X30495Y33874D01*
X30587Y33892D01*
X30665Y33944D01*
X30831Y34110D01*
X31103D01*
X31195Y34129D01*
X31220Y34145D01*
X31297D01*
Y34217D01*
X31325Y34258D01*
X31343Y34350D01*
X31325Y34442D01*
X31297Y34483D01*
Y34555D01*
X31220D01*
X31195Y34571D01*
X31103Y34590D01*
X30732D01*
X30732Y34590D01*
D02*
G37*
G36*
X19626Y36763D02*
X19551Y36753D01*
X19482Y36725D01*
X19422Y36679D01*
X19377Y36619D01*
X19348Y36550D01*
X19338Y36476D01*
X19348Y36401D01*
X19377Y36332D01*
X19422Y36272D01*
X19437Y36261D01*
Y34500D01*
X19451Y34428D01*
X19492Y34367D01*
X19668Y34191D01*
X19729Y34150D01*
X19801Y34136D01*
X19988D01*
Y34132D01*
X20412D01*
Y34517D01*
X19988D01*
Y34513D01*
X19879D01*
X19814Y34578D01*
Y36261D01*
X19829Y36272D01*
X19875Y36332D01*
X19903Y36401D01*
X19913Y36476D01*
X19903Y36550D01*
X19875Y36619D01*
X19829Y36679D01*
X19769Y36725D01*
X19700Y36753D01*
X19626Y36763D01*
D02*
G37*
G36*
X37585Y34485D02*
X36915D01*
Y33815D01*
X37327D01*
X37350Y33810D01*
X38713D01*
X38804Y33829D01*
X38829Y33845D01*
X38907D01*
Y33917D01*
X38934Y33958D01*
X38952Y34050D01*
X38934Y34142D01*
X38907Y34183D01*
Y34255D01*
X38829D01*
X38804Y34271D01*
X38713Y34290D01*
X37585D01*
Y34485D01*
D02*
G37*
G36*
X32920Y37407D02*
X32845Y37397D01*
X32776Y37369D01*
X32716Y37323D01*
X32671Y37263D01*
X32642Y37194D01*
X32632Y37120D01*
X32642Y37045D01*
X32671Y36976D01*
X32716Y36916D01*
X32776Y36871D01*
X32845Y36842D01*
X32861Y36840D01*
X33510Y36190D01*
Y34650D01*
X33510Y34650D01*
X33529Y34558D01*
X33581Y34481D01*
X34362Y33699D01*
X34374Y33613D01*
X34407Y33531D01*
X34461Y33461D01*
X34531Y33407D01*
X34613Y33374D01*
X34700Y33362D01*
X34787Y33374D01*
X34869Y33407D01*
X34939Y33461D01*
X34993Y33531D01*
X35026Y33613D01*
X35038Y33700D01*
X35026Y33787D01*
X34993Y33869D01*
X34939Y33939D01*
X34869Y33993D01*
X34787Y34026D01*
X34701Y34038D01*
X34420Y34319D01*
X34439Y34365D01*
X35035D01*
Y35035D01*
X34365D01*
Y34439D01*
X34319Y34420D01*
X33990Y34749D01*
Y36289D01*
X33971Y36381D01*
X33919Y36459D01*
X33919Y36459D01*
X33199Y37179D01*
X33197Y37194D01*
X33169Y37263D01*
X33123Y37323D01*
X33063Y37369D01*
X32994Y37397D01*
X32920Y37407D01*
D02*
G37*
G36*
X27700Y34433D02*
X27614Y34422D01*
X27533Y34388D01*
X27464Y34336D01*
X27412Y34267D01*
X27378Y34186D01*
X27367Y34100D01*
X27378Y34014D01*
X27412Y33933D01*
X27464Y33864D01*
X27533Y33812D01*
X27614Y33778D01*
X27693Y33768D01*
X28431Y33031D01*
X28431Y33031D01*
X28508Y32979D01*
X28600Y32960D01*
X29303D01*
X29395Y32979D01*
X29420Y32995D01*
X29497D01*
Y33067D01*
X29525Y33108D01*
X29543Y33200D01*
X29525Y33292D01*
X29497Y33333D01*
Y33405D01*
X29420D01*
X29395Y33421D01*
X29303Y33440D01*
X28699D01*
X28032Y34107D01*
X28022Y34186D01*
X27988Y34267D01*
X27936Y34336D01*
X27867Y34388D01*
X27786Y34422D01*
X27700Y34433D01*
D02*
G37*
G36*
X32700Y33581D02*
X32626Y33571D01*
X32556Y33543D01*
X32497Y33497D01*
X32451Y33437D01*
X32422Y33368D01*
X32420Y33353D01*
X31597Y32530D01*
X31555Y32521D01*
X31530Y32505D01*
X31453D01*
Y32433D01*
X31425Y32392D01*
X31407Y32300D01*
X31425Y32208D01*
X31453Y32167D01*
Y32095D01*
X31530D01*
X31555Y32079D01*
X31647Y32060D01*
X31706D01*
X31706Y32060D01*
X31798Y32079D01*
X31822Y32095D01*
X31840D01*
Y32107D01*
X31876Y32131D01*
X32759Y33014D01*
X32774Y33016D01*
X32844Y33045D01*
X32903Y33090D01*
X32949Y33150D01*
X32978Y33219D01*
X32987Y33294D01*
X32978Y33368D01*
X32949Y33437D01*
X32903Y33497D01*
X32844Y33543D01*
X32774Y33571D01*
X32700Y33581D01*
D02*
G37*
G36*
X31350Y33587D02*
X31276Y33578D01*
X31206Y33549D01*
X31147Y33503D01*
X31101Y33444D01*
X31072Y33374D01*
X31070Y33359D01*
X30251Y32540D01*
X29897D01*
X29805Y32521D01*
X29780Y32505D01*
X29703D01*
Y32433D01*
X29675Y32392D01*
X29657Y32300D01*
X29675Y32208D01*
X29703Y32167D01*
Y32095D01*
X29780D01*
X29805Y32079D01*
X29897Y32060D01*
X30350D01*
X30350Y32060D01*
X30350Y32060D01*
X31053D01*
X31145Y32079D01*
X31170Y32095D01*
X31247D01*
Y32167D01*
X31275Y32208D01*
X31293Y32300D01*
X31275Y32392D01*
X31247Y32433D01*
Y32505D01*
X31170D01*
X31145Y32521D01*
X31053Y32540D01*
X30994D01*
X30975Y32586D01*
X31409Y33020D01*
X31424Y33022D01*
X31494Y33051D01*
X31553Y33097D01*
X31599Y33156D01*
X31628Y33226D01*
X31637Y33300D01*
X31628Y33374D01*
X31599Y33444D01*
X31553Y33503D01*
X31494Y33549D01*
X31424Y33578D01*
X31350Y33587D01*
D02*
G37*
G36*
X27700Y33433D02*
X27614Y33422D01*
X27533Y33388D01*
X27464Y33336D01*
X27412Y33267D01*
X27378Y33186D01*
X27367Y33100D01*
X27378Y33014D01*
X27412Y32933D01*
X27464Y32864D01*
X27533Y32812D01*
X27614Y32778D01*
X27693Y32768D01*
X28331Y32131D01*
X28408Y32079D01*
X28500Y32060D01*
X28500Y32060D01*
X29303D01*
X29395Y32079D01*
X29420Y32095D01*
X29497D01*
Y32167D01*
X29525Y32208D01*
X29543Y32300D01*
X29525Y32392D01*
X29497Y32433D01*
Y32505D01*
X29420D01*
X29395Y32521D01*
X29303Y32540D01*
X28599D01*
X28032Y33107D01*
X28022Y33186D01*
X27988Y33267D01*
X27936Y33336D01*
X27867Y33388D01*
X27786Y33422D01*
X27700Y33433D01*
D02*
G37*
G36*
X39306Y34290D02*
X39214Y34271D01*
X39190Y34255D01*
X39112D01*
Y34183D01*
X39084Y34142D01*
X39066Y34050D01*
Y33200D01*
X39066Y33200D01*
X39084Y33108D01*
X39087Y33105D01*
X39086Y33102D01*
X39086Y33102D01*
Y32201D01*
X39104Y32110D01*
X39133Y32066D01*
Y32009D01*
X39191D01*
X39234Y31980D01*
X39326Y31962D01*
X39417Y31980D01*
X39461Y32009D01*
X39518D01*
Y32066D01*
X39547Y32110D01*
X39565Y32201D01*
Y33018D01*
X39586Y33049D01*
X39604Y33141D01*
X39586Y33233D01*
X39557Y33276D01*
Y33333D01*
X39545D01*
Y34050D01*
X39527Y34142D01*
X39500Y34183D01*
Y34255D01*
X39422D01*
X39398Y34271D01*
X39306Y34290D01*
D02*
G37*
G36*
X37250Y33488D02*
X37163Y33476D01*
X37081Y33443D01*
X37011Y33389D01*
X36957Y33319D01*
X36924Y33237D01*
X36912Y33151D01*
X35451Y31690D01*
X25449D01*
X25032Y32107D01*
X25022Y32186D01*
X24988Y32267D01*
X24936Y32336D01*
X24867Y32388D01*
X24786Y32422D01*
X24700Y32433D01*
X24614Y32422D01*
X24533Y32388D01*
X24464Y32336D01*
X24412Y32267D01*
X24378Y32186D01*
X24367Y32100D01*
X24378Y32014D01*
X24412Y31933D01*
X24464Y31864D01*
X24533Y31812D01*
X24614Y31778D01*
X24693Y31768D01*
X25181Y31281D01*
X25181Y31281D01*
X25258Y31229D01*
X25350Y31210D01*
X25350Y31210D01*
X35550D01*
X35550Y31210D01*
X35642Y31229D01*
X35719Y31281D01*
X37251Y32812D01*
X37337Y32824D01*
X37419Y32857D01*
X37472Y32898D01*
X38457D01*
Y32199D01*
X38475Y32107D01*
X38504Y32064D01*
Y32006D01*
X38561D01*
X38605Y31977D01*
X38696Y31959D01*
X38788Y31977D01*
X38831Y32006D01*
X38889D01*
Y32064D01*
X38918Y32107D01*
X38936Y32199D01*
Y33015D01*
X38957Y33046D01*
X38975Y33138D01*
X38957Y33230D01*
X38928Y33273D01*
Y33331D01*
X38870D01*
X38827Y33359D01*
X38735Y33378D01*
X38735Y33378D01*
X37498D01*
X37489Y33389D01*
X37419Y33443D01*
X37337Y33476D01*
X37250Y33488D01*
D02*
G37*
%LPD*%
G36*
X18250Y47143D02*
X17800D01*
Y44543D01*
X14650D01*
Y47143D01*
X13950D01*
Y47743D01*
X18250D01*
Y47143D01*
D02*
G37*
G36*
X15650Y37150D02*
X16600Y36200D01*
X19300D01*
Y34089D01*
X18150D01*
X18078Y34074D01*
X18017Y34033D01*
X17976Y33972D01*
X17961Y33900D01*
X17976Y33828D01*
X18017Y33767D01*
X18078Y33726D01*
X18150Y33711D01*
X18641D01*
X18707Y33646D01*
Y33375D01*
X18707Y33375D01*
X18716Y33332D01*
X18740Y33296D01*
X19300Y32736D01*
Y31950D01*
X17000D01*
Y33150D01*
X13551Y36599D01*
X13000Y37250D01*
X12533Y40019D01*
X12576Y40066D01*
X12637Y40074D01*
X12719Y40107D01*
X12789Y40161D01*
X12843Y40231D01*
X12876Y40313D01*
X12888Y40400D01*
X12876Y40487D01*
X12843Y40569D01*
X12789Y40639D01*
X12719Y40693D01*
X12637Y40726D01*
X12550Y40738D01*
X12463Y40726D01*
X12454Y40723D01*
X12411Y40747D01*
X12256Y41662D01*
X12289Y41700D01*
X14499D01*
Y41535D01*
X15021D01*
Y41700D01*
X15650D01*
Y37150D01*
D02*
G37*
G36*
X16300Y41750D02*
X16509Y41541D01*
Y41535D01*
X16515D01*
X19700Y38350D01*
Y37676D01*
X19654Y37657D01*
X19437Y37874D01*
Y37934D01*
X19430Y37967D01*
X19411Y37995D01*
X19383Y38014D01*
X19350Y38021D01*
X19317Y38014D01*
X19289Y37995D01*
X19270Y37967D01*
X19263Y37934D01*
Y37838D01*
X19270Y37805D01*
X19289Y37777D01*
X19570Y37496D01*
X19550Y37450D01*
X16850D01*
X16800Y37500D01*
X15908Y41961D01*
X15939Y42000D01*
X16300D01*
Y41750D01*
D02*
G37*
G36*
X28052Y39507D02*
X28054Y39500D01*
X28094Y39439D01*
X28567Y38967D01*
X28607Y38940D01*
X28592Y38890D01*
X27930D01*
X27867Y38938D01*
X27786Y38972D01*
X27700Y38983D01*
X27614Y38972D01*
X27533Y38938D01*
X27464Y38886D01*
X27459Y38879D01*
X27409Y38896D01*
Y38969D01*
X27766Y39326D01*
X27786Y39328D01*
X27867Y39362D01*
X27936Y39414D01*
X27988Y39483D01*
X28000Y39512D01*
X28052Y39507D01*
D02*
G37*
D10*
X38500Y44756D02*
X39390D01*
X39399Y44765D01*
X38500Y45705D02*
X39382D01*
X39401Y45685D01*
X38452Y46250D02*
X38500Y46298D01*
X21350Y34876D02*
Y36500D01*
X20993Y36857D02*
X21350Y36500D01*
X20993Y36857D02*
Y37934D01*
X21330Y34324D02*
X21350D01*
X20800Y34855D02*
X21330Y34324D01*
X20800Y34855D02*
Y36388D01*
X19350Y37838D02*
Y37934D01*
Y37838D02*
X20800Y36388D01*
X16100Y42200D02*
X16200Y42100D01*
D14*
X21350Y34324D02*
D03*
Y34876D02*
D03*
X20200Y34324D02*
D03*
Y34876D02*
D03*
X30050Y38351D02*
D03*
Y37800D02*
D03*
X22450Y34324D02*
D03*
Y34876D02*
D03*
X29100Y40276D02*
D03*
Y39724D02*
D03*
D15*
X30050Y39753D02*
D03*
Y40347D02*
D03*
X38500Y46298D02*
D03*
Y45705D02*
D03*
Y44163D02*
D03*
Y44756D02*
D03*
D16*
X29974Y34997D02*
D03*
X29226D02*
D03*
X29600Y34103D02*
D03*
D17*
X31103Y34350D02*
D03*
X31697D02*
D03*
X31053Y32300D02*
D03*
X31647D02*
D03*
X29303Y33200D02*
D03*
X29897D02*
D03*
X29303Y32300D02*
D03*
X29897D02*
D03*
X38713Y34050D02*
D03*
X39306D02*
D03*
X12253Y38300D02*
D03*
X12847D02*
D03*
D18*
X38696Y32199D02*
D03*
X39326Y32201D02*
D03*
X39365Y33141D02*
D03*
X38735Y33138D02*
D03*
X12865Y36601D02*
D03*
X12235Y36599D02*
D03*
D19*
X39401Y45685D02*
D03*
X39399Y46315D02*
D03*
X39401Y44135D02*
D03*
X39399Y44765D02*
D03*
D20*
X17152Y38900D02*
D03*
X14948D02*
D03*
D21*
X20050Y45300D02*
D03*
X23550D02*
D03*
X18150Y33900D02*
D03*
X14650D02*
D03*
X26550Y45300D02*
D03*
X30050D02*
D03*
D22*
X14760Y42200D02*
D03*
X16100D02*
D03*
X15430D02*
D03*
X16770D02*
D03*
X17440D02*
D03*
D23*
X16150Y47300D02*
D03*
X34700Y44300D02*
D03*
Y45300D02*
D03*
X12550Y40400D02*
D03*
X34700Y32700D02*
D03*
Y33700D02*
D03*
X37250Y44250D02*
D03*
Y45250D02*
D03*
X35150Y40100D02*
D03*
Y39100D02*
D03*
X37250Y33150D02*
D03*
D24*
X20626Y32100D02*
D03*
X20074D02*
D03*
X22074D02*
D03*
X22626D02*
D03*
D25*
X20993Y39666D02*
D03*
Y37934D02*
D03*
X19350D02*
D03*
Y39666D02*
D03*
X22650Y37934D02*
D03*
Y39666D02*
D03*
D42*
X31647Y32300D02*
X31706D01*
X32700Y33294D01*
X29974Y34997D02*
X30997D01*
X12253Y36617D02*
Y38300D01*
X12235Y36599D02*
X12253Y36617D01*
X33750Y34650D02*
X34700Y33700D01*
X33750Y34650D02*
Y36289D01*
X32920Y37120D02*
X33750Y36289D01*
X20050Y45300D02*
X20750D01*
X19281Y44041D02*
X19300Y44060D01*
X18877Y44041D02*
X19281D01*
X17440Y42604D02*
X18877Y44041D01*
X17440Y42200D02*
Y42604D01*
X20993Y37934D02*
X22650D01*
X22450Y34876D02*
X23315Y35741D01*
Y39265D01*
X24700Y40650D01*
X30350Y32300D02*
X31053D01*
X29897D02*
X30350D01*
X31350Y33300D01*
X27700Y34100D02*
X28600Y33200D01*
X29303D01*
X27170Y36780D02*
X28400Y35550D01*
X27170Y36780D02*
Y39068D01*
X27700Y39598D01*
Y39650D01*
X24700Y38650D02*
X27650Y41600D01*
X32000D01*
X34700Y44300D01*
X37350Y34050D02*
X38713D01*
X37250Y34150D02*
X37350Y34050D01*
X37262Y33138D02*
X38735D01*
X37250Y33150D02*
X37262Y33138D01*
X38696Y32199D02*
Y33099D01*
X38735Y33138D01*
X39326Y32201D02*
Y33102D01*
X39365Y33141D01*
X39306Y33200D02*
Y34050D01*
Y33200D02*
X39365Y33141D01*
X35550Y31450D02*
X37250Y33150D01*
X25350Y31450D02*
X35550D01*
X24700Y32100D02*
X25350Y31450D01*
X27700Y33100D02*
X28500Y32300D01*
X29303D01*
X29600Y34103D02*
X29685D01*
X29695Y34092D01*
Y34008D02*
Y34092D01*
Y34008D02*
X29897Y33807D01*
Y33200D02*
Y33807D01*
X30732Y34350D02*
X31103D01*
X30495Y34114D02*
X30732Y34350D01*
X29611Y34114D02*
X30495D01*
X29600Y34103D02*
X29611Y34114D01*
X27700Y38650D02*
X29751D01*
X30050Y38351D01*
X35450Y47600D02*
X36400Y46650D01*
Y45100D02*
Y46650D01*
Y45100D02*
X37250Y44250D01*
X38413D01*
X38500Y44163D01*
X27700Y43650D02*
X29350Y45300D01*
X20993Y39762D02*
X24881Y43650D01*
X27700D01*
X29350Y45300D02*
X30050D01*
X20993Y39666D02*
Y39762D01*
X34700Y45300D02*
Y46300D01*
X32000Y47600D02*
X35450D01*
X30600Y46200D02*
X32000Y47600D01*
X30050Y45300D02*
X30508D01*
X30600Y45392D01*
Y46200D01*
X23800Y48350D02*
X36100D01*
X37250Y46250D02*
Y47200D01*
X36100Y48350D02*
X37250Y47200D01*
X20750Y45300D02*
X23800Y48350D01*
D43*
X20050Y40462D02*
X20300Y40712D01*
X20912D02*
X20950Y40750D01*
X20300Y40712D02*
X20912D01*
X20050Y40462D02*
Y45300D01*
X31717Y34370D02*
X32000Y34653D01*
Y39100D01*
X19350Y39762D02*
X20050Y40462D01*
X19350Y39666D02*
Y39762D01*
X19626Y34500D02*
Y36476D01*
Y34500D02*
X19801Y34324D01*
X20200D01*
X28114Y40236D02*
X28228Y40122D01*
X23950Y34850D02*
Y36900D01*
X27700Y40650D02*
X28114Y40236D01*
X23950Y34850D02*
X24700Y34100D01*
X23950Y36900D02*
X24700Y37650D01*
X30162Y39762D02*
X32000Y41600D01*
X24700Y37650D02*
X27700Y40650D01*
X18611Y33900D02*
X19450D01*
X18150D02*
X18611D01*
X19450D02*
X20200Y33150D01*
X24700Y33100D02*
Y34100D01*
X22626Y32100D02*
X23700D01*
X24700Y33100D01*
X31697Y34350D02*
Y34361D01*
X31705Y34370D01*
X31717D01*
X28228Y39572D02*
Y40122D01*
Y39572D02*
X28700Y39100D01*
X32000D01*
X30050Y39753D02*
X30059Y39762D01*
X30162D01*
X28153Y40276D02*
X29100D01*
X29968D01*
X30039Y40347D01*
X30050D01*
X37250Y46250D02*
X38452D01*
D44*
X18611Y33900D02*
X18819Y33692D01*
Y33375D02*
Y33692D01*
Y33375D02*
X20074Y32120D01*
Y32100D02*
Y32120D01*
X16650Y43200D02*
X16770Y43080D01*
X15581Y42351D02*
Y43112D01*
X15669Y43200D02*
X16650D01*
X15581Y43112D02*
X15669Y43200D01*
X16770Y42200D02*
Y43080D01*
X15430Y42200D02*
X15581Y42351D01*
D45*
X34700Y46300D02*
D03*
Y34700D02*
D03*
D46*
X27700Y32100D02*
D03*
Y33100D02*
D03*
Y34100D02*
D03*
Y35100D02*
D03*
X24700Y32100D02*
D03*
Y33100D02*
D03*
Y34100D02*
D03*
Y40650D02*
D03*
Y39650D02*
D03*
Y38650D02*
D03*
Y37650D02*
D03*
X27700Y40650D02*
D03*
Y39650D02*
D03*
Y38650D02*
D03*
D47*
X24700Y35100D02*
D03*
X27700Y37650D02*
D03*
D48*
X12550Y41400D02*
D03*
X37250Y46250D02*
D03*
X35150Y38100D02*
D03*
X37250Y34150D02*
D03*
D49*
X32700Y33294D02*
D03*
X30997Y34997D02*
D03*
X32920Y37120D02*
D03*
X20950Y40750D02*
D03*
X19300Y44060D02*
D03*
X19626Y36476D02*
D03*
X31350Y33300D02*
D03*
X28400Y35550D02*
D03*
X20200Y33150D02*
D03*
X32000Y39100D02*
D03*
X17800Y39550D02*
D03*
X16800Y39800D02*
D03*
X16650Y40700D02*
D03*
D50*
X15000Y44950D02*
D03*
X15800D02*
D03*
X15000Y45750D02*
D03*
X15800D02*
D03*
X15000Y46550D02*
D03*
X15800D02*
D03*
Y47350D02*
D03*
X15000D02*
D03*
X17400Y44950D02*
D03*
X16600D02*
D03*
X17400Y45750D02*
D03*
X16600D02*
D03*
X17400Y46550D02*
D03*
X16600D02*
D03*
X17400Y47350D02*
D03*
X16600D02*
D03*
M02*
