G04*
G04 #@! TF.GenerationSoftware,Altium Limited,Altium Designer,20.2.6 (244)*
G04*
G04 Layer_Color=16711935*
%FSLAX24Y24*%
%MOIN*%
G70*
G04*
G04 #@! TF.SameCoordinates,601DEEF6-7E2B-4F85-A560-B3D03E394376*
G04*
G04*
G04 #@! TF.FilePolarity,Negative*
G04*
G01*
G75*
%ADD35C,0.0680*%
%ADD38R,0.0680X0.0680*%
%ADD39C,0.0671*%
%ADD40R,0.0671X0.0671*%
%ADD41R,0.0680X0.0680*%
D35*
X34700Y44300D02*
D03*
Y45300D02*
D03*
X12550Y40400D02*
D03*
X34700Y32700D02*
D03*
Y33700D02*
D03*
X37250Y44250D02*
D03*
Y45250D02*
D03*
X35150Y40100D02*
D03*
Y39100D02*
D03*
X37250Y33150D02*
D03*
D38*
X34700Y46300D02*
D03*
Y34700D02*
D03*
D39*
X27700Y32100D02*
D03*
Y33100D02*
D03*
Y34100D02*
D03*
Y35100D02*
D03*
X24700Y32100D02*
D03*
Y33100D02*
D03*
Y34100D02*
D03*
Y40650D02*
D03*
Y39650D02*
D03*
Y38650D02*
D03*
Y37650D02*
D03*
X27700Y40650D02*
D03*
Y39650D02*
D03*
Y38650D02*
D03*
D40*
X24700Y35100D02*
D03*
X27700Y37650D02*
D03*
D41*
X12550Y41400D02*
D03*
X37250Y46250D02*
D03*
X35150Y38100D02*
D03*
X37250Y34150D02*
D03*
M02*
