G04*
G04 #@! TF.GenerationSoftware,Altium Limited,Altium Designer,20.2.6 (244)*
G04*
G04 Layer_Color=32768*
%FSLAX24Y24*%
%MOIN*%
G70*
G04*
G04 #@! TF.SameCoordinates,601DEEF6-7E2B-4F85-A560-B3D03E394376*
G04*
G04*
G04 #@! TF.FilePolarity,Positive*
G04*
G01*
G75*
%ADD52C,0.0118*%
G36*
X12971Y36576D02*
X12759D01*
Y36627D01*
X12971D01*
Y36576D01*
D02*
G37*
G36*
X12261Y36624D02*
X12342D01*
Y36573D01*
X12261D01*
Y36493D01*
X12210D01*
Y36573D01*
X12129D01*
Y36624D01*
X12210D01*
Y36705D01*
X12261D01*
Y36624D01*
D02*
G37*
G36*
X19389Y38031D02*
X19611D01*
Y37952D01*
X19389D01*
Y37835D01*
X19311D01*
Y37952D01*
X19089D01*
Y38031D01*
X19311D01*
Y38148D01*
X19389D01*
Y38031D01*
D02*
G37*
G36*
X19311Y39765D02*
X19389D01*
Y39452D01*
X19311D01*
Y39765D01*
D02*
G37*
G36*
X21032Y39648D02*
X21254D01*
Y39569D01*
X21032D01*
Y39452D01*
X20954D01*
Y39569D01*
X20732D01*
Y39648D01*
X20954D01*
Y39765D01*
X21032D01*
Y39648D01*
D02*
G37*
G36*
Y37835D02*
X20954D01*
Y38148D01*
X21032D01*
Y37835D01*
D02*
G37*
G36*
X22689Y38031D02*
X22911D01*
Y37952D01*
X22689D01*
Y37835D01*
X22611D01*
Y37952D01*
X22389D01*
Y38031D01*
X22611D01*
Y38148D01*
X22689D01*
Y38031D01*
D02*
G37*
G36*
X22611Y39765D02*
X22689D01*
Y39452D01*
X22611D01*
Y39765D01*
D02*
G37*
G36*
X38722Y32224D02*
X38803D01*
Y32173D01*
X38722D01*
Y32093D01*
X38671D01*
Y32173D01*
X38590D01*
Y32224D01*
X38671D01*
Y32305D01*
X38722D01*
Y32224D01*
D02*
G37*
G36*
X39432Y32176D02*
X39220D01*
Y32227D01*
X39432D01*
Y32176D01*
D02*
G37*
G36*
X38841Y33112D02*
X38629D01*
Y33164D01*
X38841D01*
Y33112D01*
D02*
G37*
G36*
X39390Y33166D02*
X39471D01*
Y33115D01*
X39390D01*
Y33034D01*
X39339D01*
Y33115D01*
X39258D01*
Y33166D01*
X39339D01*
Y33247D01*
X39390D01*
Y33166D01*
D02*
G37*
G36*
X39427Y44161D02*
X39507D01*
Y44110D01*
X39427D01*
Y44029D01*
X39376D01*
Y44110D01*
X39295D01*
Y44161D01*
X39376D01*
Y44242D01*
X39427D01*
Y44161D01*
D02*
G37*
G36*
X39424Y44871D02*
Y44659D01*
X39373D01*
Y44871D01*
X39424D01*
D02*
G37*
G36*
X39427Y45711D02*
X39507D01*
Y45660D01*
X39427D01*
Y45579D01*
X39376D01*
Y45660D01*
X39295D01*
Y45711D01*
X39376D01*
Y45792D01*
X39427D01*
Y45711D01*
D02*
G37*
G36*
X39424Y46421D02*
Y46209D01*
X39373D01*
Y46421D01*
X39424D01*
D02*
G37*
D52*
X14825Y41802D02*
G03*
X14825Y41802I-59J0D01*
G01*
M02*
