G04*
G04 #@! TF.GenerationSoftware,Altium Limited,Altium Designer,20.2.6 (244)*
G04*
G04 Layer_Color=255*
%FSLAX24Y24*%
%MOIN*%
G70*
G04*
G04 #@! TF.SameCoordinates,601DEEF6-7E2B-4F85-A560-B3D03E394376*
G04*
G04*
G04 #@! TF.FilePolarity,Positive*
G04*
G01*
G75*
%ADD14R,0.0354X0.0315*%
%ADD15R,0.0340X0.0318*%
%ADD16R,0.0209X0.0421*%
%ADD17R,0.0318X0.0340*%
%ADD18R,0.0315X0.0315*%
%ADD19R,0.0315X0.0315*%
%ADD20R,0.0984X0.1496*%
%ADD21O,0.2000X0.0600*%
%ADD22R,0.0453X0.1260*%
%ADD23C,0.0600*%
%ADD24R,0.0315X0.0354*%
%ADD25R,0.0669X0.0860*%
%ADD45R,0.0600X0.0600*%
%ADD46C,0.0591*%
%ADD47R,0.0591X0.0591*%
%ADD48R,0.0600X0.0600*%
D14*
X21350Y34324D02*
D03*
Y34876D02*
D03*
X20200Y34324D02*
D03*
Y34876D02*
D03*
X30050Y38351D02*
D03*
Y37800D02*
D03*
X22450Y34324D02*
D03*
Y34876D02*
D03*
X29100Y40276D02*
D03*
Y39724D02*
D03*
D15*
X30050Y39753D02*
D03*
Y40347D02*
D03*
X38500Y46298D02*
D03*
Y45705D02*
D03*
Y44163D02*
D03*
Y44756D02*
D03*
D16*
X29974Y34997D02*
D03*
X29226D02*
D03*
X29600Y34103D02*
D03*
D17*
X31103Y34350D02*
D03*
X31697D02*
D03*
X31053Y32300D02*
D03*
X31647D02*
D03*
X29303Y33200D02*
D03*
X29897D02*
D03*
X29303Y32300D02*
D03*
X29897D02*
D03*
X38713Y34050D02*
D03*
X39306D02*
D03*
X12253Y38300D02*
D03*
X12847D02*
D03*
D18*
X38696Y32199D02*
D03*
X39326Y32201D02*
D03*
X39365Y33141D02*
D03*
X38735Y33138D02*
D03*
X12865Y36601D02*
D03*
X12235Y36599D02*
D03*
D19*
X39401Y45685D02*
D03*
X39399Y46315D02*
D03*
X39401Y44135D02*
D03*
X39399Y44765D02*
D03*
D20*
X17152Y38900D02*
D03*
X14948D02*
D03*
D21*
X20050Y45300D02*
D03*
X23550D02*
D03*
X18150Y33900D02*
D03*
X14650D02*
D03*
X26550Y45300D02*
D03*
X30050D02*
D03*
D22*
X14760Y42200D02*
D03*
X16100D02*
D03*
X15430D02*
D03*
X16770D02*
D03*
X17440D02*
D03*
D23*
X16150Y47300D02*
D03*
X34700Y44300D02*
D03*
Y45300D02*
D03*
X12550Y40400D02*
D03*
X34700Y32700D02*
D03*
Y33700D02*
D03*
X37250Y44250D02*
D03*
Y45250D02*
D03*
X35150Y40100D02*
D03*
Y39100D02*
D03*
X37250Y33150D02*
D03*
D24*
X20626Y32100D02*
D03*
X20074D02*
D03*
X22074D02*
D03*
X22626D02*
D03*
D25*
X20993Y39666D02*
D03*
Y37934D02*
D03*
X19350D02*
D03*
Y39666D02*
D03*
X22650Y37934D02*
D03*
Y39666D02*
D03*
D45*
X34700Y46300D02*
D03*
Y34700D02*
D03*
D46*
X27700Y32100D02*
D03*
Y33100D02*
D03*
Y34100D02*
D03*
Y35100D02*
D03*
X24700Y32100D02*
D03*
Y33100D02*
D03*
Y34100D02*
D03*
Y40650D02*
D03*
Y39650D02*
D03*
Y38650D02*
D03*
Y37650D02*
D03*
X27700Y40650D02*
D03*
Y39650D02*
D03*
Y38650D02*
D03*
D47*
X24700Y35100D02*
D03*
X27700Y37650D02*
D03*
D48*
X12550Y41400D02*
D03*
X37250Y46250D02*
D03*
X35150Y38100D02*
D03*
X37250Y34150D02*
D03*
M02*
