M48
;Layer_Color=9474304
;FILE_FORMAT=2:4
INCH,LZ
;TYPE=PLATED
T1F00S00C0.0280
T2F00S00C0.0300
T3F00S00C0.0354
%
T01
X0202Y03315
X019626Y036476
X0178Y03955
X0168Y0398
X01665Y0407
X02095Y04075
X0193Y04406
X0284Y03555
X030997Y034997
X03135Y0333
X0327Y033294
X03292Y03712
X032Y0391
T02
X01255Y0404
Y0414
X015Y04495
Y04575
Y04655
X0158
Y04575
Y04495
X0166
X0174
Y04575
X0166
Y04655
X0174
X0347Y0463
Y0453
Y0443
X03725Y04425
Y04525
Y04625
X03515Y0401
Y0391
Y0381
X0347Y0347
Y0337
Y0327
X03725Y03315
Y03415
X0174Y04735
X0166
X0158
X015
T03
X0247Y0321
Y0331
Y0341
Y0351
Y03765
Y03865
Y03965
Y04065
X0277
Y03965
Y03865
Y03765
Y0351
Y0341
Y0331
Y0321
M30
