G04*
G04 #@! TF.GenerationSoftware,Altium Limited,Altium Designer,20.2.6 (244)*
G04*
G04 Layer_Color=65535*
%FSLAX24Y24*%
%MOIN*%
G70*
G04*
G04 #@! TF.SameCoordinates,601DEEF6-7E2B-4F85-A560-B3D03E394376*
G04*
G04*
G04 #@! TF.FilePolarity,Positive*
G04*
G01*
G75*
%ADD10C,0.0100*%
%ADD11C,0.0079*%
%ADD12C,0.0060*%
%ADD13C,0.0059*%
G36*
X20411Y37757D02*
X20543D01*
Y37577D01*
X20411D01*
Y37757D01*
D02*
G37*
G36*
X18768Y39843D02*
X18900D01*
Y40023D01*
X18768D01*
Y39843D01*
D02*
G37*
G36*
X19932D02*
X19800D01*
Y40023D01*
X19932D01*
Y39843D01*
D02*
G37*
G36*
X21574Y37757D02*
X21443D01*
Y37577D01*
X21574D01*
Y37757D01*
D02*
G37*
G36*
X22068Y39843D02*
X22200D01*
Y40023D01*
X22068D01*
Y39843D01*
D02*
G37*
G36*
X23232D02*
X23100D01*
Y40023D01*
X23232D01*
Y39843D01*
D02*
G37*
D10*
X21630Y35025D02*
G03*
X21508Y35147I-122J0D01*
G01*
X21193D02*
G03*
X21071Y35025I-0J-122D01*
G01*
X21505Y34047D02*
G03*
X21627Y34169I0J122D01*
G01*
X21068D02*
G03*
X21190Y34047I122J0D01*
G01*
X20480Y35025D02*
G03*
X20358Y35147I-122J0D01*
G01*
X20043D02*
G03*
X19921Y35025I-0J-122D01*
G01*
X20355Y34047D02*
G03*
X20477Y34169I0J122D01*
G01*
X19918D02*
G03*
X20040Y34047I122J0D01*
G01*
X29770Y37650D02*
G03*
X29892Y37528I122J0D01*
G01*
X30207D02*
G03*
X30329Y37650I0J122D01*
G01*
X29895Y38629D02*
G03*
X29773Y38507I-0J-122D01*
G01*
X30332D02*
G03*
X30210Y38629I-122J0D01*
G01*
X17800Y37750D02*
G03*
X17800Y37750I-50J0D01*
G01*
X23780Y45831D02*
G03*
X19820Y45831I-1980J-531D01*
G01*
Y44769D02*
G03*
X23780Y44769I1980J531D01*
G01*
X35650Y46700D02*
G03*
X35650Y46700I-50J0D01*
G01*
Y35100D02*
G03*
X35650Y35100I-50J0D01*
G01*
X14300Y42343D02*
G03*
X14300Y42343I-50J0D01*
G01*
X14420Y33369D02*
G03*
X18380Y33369I1980J531D01*
G01*
Y34431D02*
G03*
X14420Y34431I-1980J-531D01*
G01*
X22732Y35031D02*
G03*
X22610Y35153I-122J0D01*
G01*
X22295D02*
G03*
X22173Y35031I-0J-122D01*
G01*
X22607Y34053D02*
G03*
X22729Y34175I0J122D01*
G01*
X22170D02*
G03*
X22292Y34053I122J0D01*
G01*
X19919Y32382D02*
G03*
X19797Y32260I0J-122D01*
G01*
Y31945D02*
G03*
X19919Y31823I122J-0D01*
G01*
X20897Y32257D02*
G03*
X20775Y32379I-122J0D01*
G01*
Y31820D02*
G03*
X20897Y31942I0J122D01*
G01*
X22781Y31818D02*
G03*
X22903Y31940I0J122D01*
G01*
Y32255D02*
G03*
X22781Y32377I-122J0D01*
G01*
X21803Y31943D02*
G03*
X21925Y31821I122J-0D01*
G01*
Y32380D02*
G03*
X21803Y32258I0J-122D01*
G01*
X28818Y39569D02*
G03*
X28940Y39447I122J0D01*
G01*
X29255D02*
G03*
X29377Y39569I0J122D01*
G01*
X28943Y40547D02*
G03*
X28821Y40425I-0J-122D01*
G01*
X29380D02*
G03*
X29258Y40547I-122J0D01*
G01*
X30280Y45831D02*
G03*
X26320Y45831I-1980J-531D01*
G01*
Y44769D02*
G03*
X30280Y44769I1980J531D01*
G01*
X21627Y34169D02*
Y34484D01*
X21190Y34047D02*
X21505D01*
X21068Y34169D02*
Y34484D01*
X21630Y34710D02*
Y35025D01*
X21071Y34710D02*
Y35025D01*
X21193Y35147D02*
X21508D01*
X20477Y34169D02*
Y34484D01*
X20040Y34047D02*
X20355D01*
X19918Y34169D02*
Y34484D01*
X20480Y34710D02*
Y35025D01*
X19921Y34710D02*
Y35025D01*
X20043Y35147D02*
X20358D01*
X29773Y38192D02*
Y38507D01*
X29895Y38629D02*
X30210D01*
X30332Y38192D02*
Y38507D01*
X29770Y37650D02*
Y37965D01*
X30329Y37650D02*
Y37965D01*
X29892Y37528D02*
X30207D01*
X14550Y39800D02*
Y40400D01*
X17550Y39800D02*
Y40400D01*
Y37400D02*
Y38000D01*
X14550Y37400D02*
Y38000D01*
Y37400D02*
X17550D01*
X14550Y40400D02*
X17550D01*
X19550Y43800D02*
X20300Y43050D01*
X24050D01*
X19550Y45850D02*
Y46800D01*
X20300Y47550D01*
X24050D01*
Y43050D02*
Y44750D01*
X19550Y43800D02*
Y44750D01*
X24050Y45850D02*
Y47550D01*
X35400Y43700D02*
Y46900D01*
Y43700D02*
X35700D01*
X35400Y46900D02*
X35700D01*
Y47200D01*
Y43400D02*
Y43700D01*
X33700Y43400D02*
X35700D01*
X33700Y47200D02*
X35700D01*
X33700Y43400D02*
Y47200D01*
X12000Y42000D02*
X13100D01*
Y39800D02*
Y42000D01*
X12000Y39800D02*
Y42000D01*
Y39800D02*
X13100D01*
X35400Y32100D02*
Y35300D01*
Y32100D02*
X35700D01*
X35400Y35300D02*
X35700D01*
Y35600D01*
Y31800D02*
Y32100D01*
X33700Y31800D02*
X35700D01*
X33700Y35600D02*
X35700D01*
X33700Y31800D02*
Y35600D01*
X36700Y43650D02*
Y46850D01*
X37800Y43650D02*
Y46850D01*
X36700Y43650D02*
X37800D01*
X36700Y46850D02*
X37800D01*
X35700Y37500D02*
Y40700D01*
X34600Y37500D02*
Y40700D01*
X35700D01*
X34600Y37500D02*
X35700D01*
X36700Y34750D02*
X37800D01*
Y32550D02*
Y34750D01*
X36700Y32550D02*
Y34750D01*
Y32550D02*
X37800D01*
X14100Y43438D02*
Y44043D01*
Y43438D02*
X18100D01*
Y44043D01*
X17900Y36150D02*
X18650Y35400D01*
X14150Y36150D02*
X17900D01*
X18650Y32400D02*
Y33350D01*
X17900Y31650D02*
X18650Y32400D01*
X14150Y31650D02*
X17900D01*
X14150Y34450D02*
Y36150D01*
X18650Y34450D02*
Y35400D01*
X14150Y31650D02*
Y33350D01*
X22292Y34053D02*
X22607D01*
X22729Y34175D02*
Y34490D01*
X22170Y34175D02*
Y34490D01*
X22732Y34716D02*
Y35031D01*
X22295Y35153D02*
X22610D01*
X22173Y34716D02*
Y35031D01*
X20897Y31942D02*
Y32257D01*
X20460Y32379D02*
X20775D01*
X20460Y31820D02*
X20775D01*
X19919Y32382D02*
X20234D01*
X19797Y31945D02*
Y32260D01*
X19919Y31823D02*
X20234D01*
X21803Y31943D02*
Y32258D01*
X21925Y31821D02*
X22240D01*
X21925Y32380D02*
X22240D01*
X22466Y31818D02*
X22781D01*
X22903Y31940D02*
Y32255D01*
X22466Y32377D02*
X22781D01*
X28943Y40547D02*
X29258D01*
X28821Y40110D02*
Y40425D01*
X29380Y40110D02*
Y40425D01*
X28818Y39569D02*
Y39884D01*
X28940Y39447D02*
X29255D01*
X29377Y39569D02*
Y39884D01*
X26050Y43800D02*
X26800Y43050D01*
X30550D01*
X26050Y45850D02*
Y46800D01*
X26800Y47550D01*
X30550D01*
Y43050D02*
Y44750D01*
X26050Y43800D02*
Y44750D01*
X30550Y45850D02*
Y47550D01*
X21350Y36000D02*
X21250Y36100D01*
X21050D01*
X20950Y36000D01*
Y35600D01*
X21050Y35500D01*
X21250D01*
X21350Y35600D01*
X21950Y36100D02*
X21550D01*
Y35800D01*
X21750Y35900D01*
X21850D01*
X21950Y35800D01*
Y35600D01*
X21850Y35500D01*
X21650D01*
X21550Y35600D01*
X20100Y36000D02*
X20000Y36100D01*
X19800D01*
X19700Y36000D01*
Y35600D01*
X19800Y35500D01*
X20000D01*
X20100Y35600D01*
X20600Y35500D02*
Y36100D01*
X20300Y35800D01*
X20700D01*
X30650Y39750D02*
Y40350D01*
X30950D01*
X31050Y40250D01*
Y40050D01*
X30950Y39950D01*
X30650D01*
X30850D02*
X31050Y39750D01*
X31650Y40350D02*
X31450Y40250D01*
X31250Y40050D01*
Y39850D01*
X31350Y39750D01*
X31550D01*
X31650Y39850D01*
Y39950D01*
X31550Y40050D01*
X31250D01*
X31000Y38250D02*
X30900Y38350D01*
X30700D01*
X30600Y38250D01*
Y37850D01*
X30700Y37750D01*
X30900D01*
X31000Y37850D01*
X31200Y37750D02*
X31400D01*
X31300D01*
Y38350D01*
X31200Y38250D01*
X31700D02*
X31800Y38350D01*
X32000D01*
X32100Y38250D01*
Y37850D01*
X32000Y37750D01*
X31800D01*
X31700Y37850D01*
Y38250D01*
X29500Y35600D02*
Y36000D01*
X29400Y36100D01*
X29200D01*
X29100Y36000D01*
Y35600D01*
X29200Y35500D01*
X29400D01*
X29300Y35700D02*
X29500Y35500D01*
X29400D02*
X29500Y35600D01*
X29700Y35500D02*
X29900D01*
X29800D01*
Y36100D01*
X29700Y36000D01*
X32200Y34050D02*
Y34650D01*
X32500D01*
X32600Y34550D01*
Y34350D01*
X32500Y34250D01*
X32200D01*
X32400D02*
X32600Y34050D01*
X33200Y34650D02*
X32800D01*
Y34350D01*
X33000Y34450D01*
X33100D01*
X33200Y34350D01*
Y34150D01*
X33100Y34050D01*
X32900D01*
X32800Y34150D01*
X30900Y31150D02*
Y31750D01*
X31200D01*
X31300Y31650D01*
Y31450D01*
X31200Y31350D01*
X30900D01*
X31100D02*
X31300Y31150D01*
X31500Y31650D02*
X31600Y31750D01*
X31800D01*
X31900Y31650D01*
Y31550D01*
X31800Y31450D01*
X31900Y31350D01*
Y31250D01*
X31800Y31150D01*
X31600D01*
X31500Y31250D01*
Y31350D01*
X31600Y31450D01*
X31500Y31550D01*
Y31650D01*
X31600Y31450D02*
X31800D01*
X30550Y32900D02*
Y33500D01*
X30850D01*
X30950Y33400D01*
Y33200D01*
X30850Y33100D01*
X30550D01*
X30750D02*
X30950Y32900D01*
X31150Y33500D02*
X31550D01*
Y33400D01*
X31150Y33000D01*
Y32900D01*
X28900Y31150D02*
Y31750D01*
X29200D01*
X29300Y31650D01*
Y31450D01*
X29200Y31350D01*
X28900D01*
X29100D02*
X29300Y31150D01*
X29500D02*
X29700D01*
X29600D01*
Y31750D01*
X29500Y31650D01*
X30000D02*
X30100Y31750D01*
X30300D01*
X30400Y31650D01*
Y31250D01*
X30300Y31150D01*
X30100D01*
X30000Y31250D01*
Y31650D01*
X39900Y32450D02*
Y31850D01*
X40200D01*
X40300Y31950D01*
Y32350D01*
X40200Y32450D01*
X39900D01*
X40500D02*
X40900D01*
Y32350D01*
X40500Y31950D01*
Y31850D01*
X39900Y33450D02*
Y32850D01*
X40200D01*
X40300Y32950D01*
Y33350D01*
X40200Y33450D01*
X39900D01*
X40500Y33350D02*
X40600Y33450D01*
X40800D01*
X40900Y33350D01*
Y33250D01*
X40800Y33150D01*
X40900Y33050D01*
Y32950D01*
X40800Y32850D01*
X40600D01*
X40500Y32950D01*
Y33050D01*
X40600Y33150D01*
X40500Y33250D01*
Y33350D01*
X40600Y33150D02*
X40800D01*
X39850Y33750D02*
Y34350D01*
X40150D01*
X40250Y34250D01*
Y34050D01*
X40150Y33950D01*
X39850D01*
X40050D02*
X40250Y33750D01*
X40450D02*
X40650D01*
X40550D01*
Y34350D01*
X40450Y34250D01*
X40950Y33750D02*
X41150D01*
X41050D01*
Y34350D01*
X40950Y34250D01*
X38200Y46900D02*
Y47500D01*
X38500D01*
X38600Y47400D01*
Y47200D01*
X38500Y47100D01*
X38200D01*
X38400D02*
X38600Y46900D01*
X38800Y47400D02*
X38900Y47500D01*
X39100D01*
X39200Y47400D01*
Y47300D01*
X39100Y47200D01*
X39000D01*
X39100D01*
X39200Y47100D01*
Y47000D01*
X39100Y46900D01*
X38900D01*
X38800Y47000D01*
X39650Y47500D02*
Y46900D01*
X39950D01*
X40050Y47000D01*
Y47400D01*
X39950Y47500D01*
X39650D01*
X40650D02*
X40450Y47400D01*
X40250Y47200D01*
Y47000D01*
X40350Y46900D01*
X40550D01*
X40650Y47000D01*
Y47100D01*
X40550Y47200D01*
X40250D01*
X39600Y43350D02*
Y42750D01*
X39900D01*
X40000Y42850D01*
Y43250D01*
X39900Y43350D01*
X39600D01*
X40500Y42750D02*
Y43350D01*
X40200Y43050D01*
X40600D01*
X38250Y42800D02*
Y43400D01*
X38550D01*
X38650Y43300D01*
Y43100D01*
X38550Y43000D01*
X38250D01*
X38450D02*
X38650Y42800D01*
X39150D02*
Y43400D01*
X38850Y43100D01*
X39250D01*
X20400Y44450D02*
X20800D01*
X20600Y44650D02*
Y44250D01*
X17800Y34750D02*
X17400D01*
X17600Y34550D02*
Y34950D01*
X26900Y44450D02*
X27300D01*
X27100Y44650D02*
Y44250D01*
X24460Y36570D02*
Y36070D01*
X24560Y35970D01*
X24760D01*
X24860Y36070D01*
Y36570D01*
X25060Y36470D02*
X25160Y36570D01*
X25360D01*
X25460Y36470D01*
Y36370D01*
X25360Y36270D01*
X25260D01*
X25360D01*
X25460Y36170D01*
Y36070D01*
X25360Y35970D01*
X25160D01*
X25060Y36070D01*
X24460Y42120D02*
Y41620D01*
X24560Y41520D01*
X24760D01*
X24860Y41620D01*
Y42120D01*
X25460Y41520D02*
X25060D01*
X25460Y41920D01*
Y42020D01*
X25360Y42120D01*
X25160D01*
X25060Y42020D01*
X14045Y48645D02*
Y48145D01*
X14145Y48045D01*
X14345D01*
X14445Y48145D01*
Y48645D01*
X14645Y48045D02*
X14845D01*
X14745D01*
Y48645D01*
X14645Y48545D01*
X33745Y47545D02*
Y48145D01*
X34045D01*
X34145Y48045D01*
Y47845D01*
X34045Y47745D01*
X33745D01*
X33945D02*
X34145Y47545D01*
X34345Y47645D02*
X34445Y47545D01*
X34645D01*
X34745Y47645D01*
Y48045D01*
X34645Y48145D01*
X34445D01*
X34345Y48045D01*
Y47945D01*
X34445Y47845D01*
X34745D01*
X12070Y38890D02*
Y39490D01*
X12370D01*
X12470Y39390D01*
Y39190D01*
X12370Y39090D01*
X12070D01*
X12270D02*
X12470Y38890D01*
X13070D02*
X12670D01*
X13070Y39290D01*
Y39390D01*
X12970Y39490D01*
X12770D01*
X12670Y39390D01*
X33745Y35945D02*
Y36545D01*
X34045D01*
X34145Y36445D01*
Y36245D01*
X34045Y36145D01*
X33745D01*
X33945D02*
X34145Y35945D01*
X34345D02*
X34545D01*
X34445D01*
Y36545D01*
X34345Y36445D01*
X14520Y41350D02*
Y40750D01*
X14920D01*
X15120D02*
X15320D01*
X15220D01*
Y41350D01*
X15120Y41250D01*
X12050Y42950D02*
Y42350D01*
Y42650D01*
X12450D01*
Y42950D01*
Y42350D01*
X12950D02*
Y42950D01*
X12650Y42650D01*
X13050D01*
X34655Y41645D02*
Y41045D01*
Y41345D01*
X35055D01*
Y41645D01*
Y41045D01*
X35255Y41545D02*
X35355Y41645D01*
X35555D01*
X35655Y41545D01*
Y41445D01*
X35555Y41345D01*
X35455D01*
X35555D01*
X35655Y41245D01*
Y41145D01*
X35555Y41045D01*
X35355D01*
X35255Y41145D01*
X36750Y35700D02*
Y35100D01*
Y35400D01*
X37150D01*
Y35700D01*
Y35100D01*
X37750D02*
X37350D01*
X37750Y35500D01*
Y35600D01*
X37650Y35700D01*
X37450D01*
X37350Y35600D01*
X36750Y47800D02*
Y47200D01*
Y47500D01*
X37150D01*
Y47800D01*
Y47200D01*
X37350D02*
X37550D01*
X37450D01*
Y47800D01*
X37350Y47700D01*
X12070Y37820D02*
Y37220D01*
X12370D01*
X12470Y37320D01*
Y37720D01*
X12370Y37820D01*
X12070D01*
X13070D02*
X12670D01*
Y37520D01*
X12870Y37620D01*
X12970D01*
X13070Y37520D01*
Y37320D01*
X12970Y37220D01*
X12770D01*
X12670Y37320D01*
X22160Y41040D02*
Y40440D01*
X22460D01*
X22560Y40540D01*
Y40940D01*
X22460Y41040D01*
X22160D01*
X22760Y40940D02*
X22860Y41040D01*
X23060D01*
X23160Y40940D01*
Y40840D01*
X23060Y40740D01*
X22960D01*
X23060D01*
X23160Y40640D01*
Y40540D01*
X23060Y40440D01*
X22860D01*
X22760Y40540D01*
X20513Y41040D02*
Y40440D01*
X20813D01*
X20913Y40540D01*
Y40940D01*
X20813Y41040D01*
X20513D01*
X21513Y40440D02*
X21113D01*
X21513Y40840D01*
Y40940D01*
X21413Y41040D01*
X21213D01*
X21113Y40940D01*
X18860Y41040D02*
Y40440D01*
X19160D01*
X19260Y40540D01*
Y40940D01*
X19160Y41040D01*
X18860D01*
X19460Y40440D02*
X19660D01*
X19560D01*
Y41040D01*
X19460Y40940D01*
X22620Y36000D02*
X22520Y36100D01*
X22320D01*
X22220Y36000D01*
Y35600D01*
X22320Y35500D01*
X22520D01*
X22620Y35600D01*
X22820D02*
X22920Y35500D01*
X23120D01*
X23220Y35600D01*
Y36000D01*
X23120Y36100D01*
X22920D01*
X22820Y36000D01*
Y35900D01*
X22920Y35800D01*
X23220D01*
X22254Y33230D02*
X22154Y33330D01*
X21954D01*
X21854Y33230D01*
Y32830D01*
X21954Y32730D01*
X22154D01*
X22254Y32830D01*
X22454Y33230D02*
X22554Y33330D01*
X22754D01*
X22854Y33230D01*
Y33130D01*
X22754Y33030D01*
X22854Y32930D01*
Y32830D01*
X22754Y32730D01*
X22554D01*
X22454Y32830D01*
Y32930D01*
X22554Y33030D01*
X22454Y33130D01*
Y33230D01*
X22554Y33030D02*
X22754D01*
X29270Y41400D02*
X29170Y41500D01*
X28970D01*
X28870Y41400D01*
Y41000D01*
X28970Y40900D01*
X29170D01*
X29270Y41000D01*
X29470Y41500D02*
X29870D01*
Y41400D01*
X29470Y41000D01*
Y40900D01*
X26005Y48405D02*
X25905Y48505D01*
X25705D01*
X25605Y48405D01*
Y48005D01*
X25705Y47905D01*
X25905D01*
X26005Y48005D01*
X26605Y48505D02*
X26405Y48405D01*
X26205Y48205D01*
Y48005D01*
X26305Y47905D01*
X26505D01*
X26605Y48005D01*
Y48105D01*
X26505Y48205D01*
X26205D01*
X19505Y48405D02*
X19405Y48505D01*
X19205D01*
X19105Y48405D01*
Y48005D01*
X19205Y47905D01*
X19405D01*
X19505Y48005D01*
X19705Y48405D02*
X19805Y48505D01*
X20005D01*
X20105Y48405D01*
Y48305D01*
X20005Y48205D01*
X19905D01*
X20005D01*
X20105Y48105D01*
Y48005D01*
X20005Y47905D01*
X19805D01*
X19705Y48005D01*
X14110Y37000D02*
X14010Y37100D01*
X13810D01*
X13710Y37000D01*
Y36600D01*
X13810Y36500D01*
X14010D01*
X14110Y36600D01*
X14710Y36500D02*
X14310D01*
X14710Y36900D01*
Y37000D01*
X14610Y37100D01*
X14410D01*
X14310Y37000D01*
X20245Y33235D02*
X20145Y33335D01*
X19945D01*
X19845Y33235D01*
Y32835D01*
X19945Y32735D01*
X20145D01*
X20245Y32835D01*
X20445Y32735D02*
X20645D01*
X20545D01*
Y33335D01*
X20445Y33235D01*
D11*
X25950Y35628D02*
G03*
X26450Y35628I250J0D01*
G01*
Y37122D02*
G03*
X25950Y37122I-250J0D01*
G01*
X27243Y31572D02*
Y35628D01*
X25157Y31572D02*
Y35628D01*
Y31572D02*
X27243D01*
X26450Y35628D02*
X27243D01*
X25157D02*
X25950D01*
X25157Y37122D02*
Y41178D01*
X27243Y37122D02*
Y41178D01*
X25157D02*
X27243D01*
X25157Y37122D02*
X25950D01*
X26450D02*
X27243D01*
D12*
X29790Y39505D02*
Y39882D01*
Y39505D02*
X30310D01*
Y39882D01*
X29790Y40218D02*
Y40595D01*
X30310D01*
Y40218D02*
Y40595D01*
X28995Y34205D02*
Y34895D01*
Y34205D02*
X29405D01*
X30205D02*
Y34895D01*
X29795Y34205D02*
X30205D01*
X29421Y34895D02*
X29779D01*
X30855Y34610D02*
X31232D01*
X30855Y34090D02*
Y34610D01*
Y34090D02*
X31232D01*
X31568Y34610D02*
X31945D01*
Y34090D02*
Y34610D01*
X31568Y34090D02*
X31945D01*
X30805Y32560D02*
X31182D01*
X30805Y32040D02*
Y32560D01*
Y32040D02*
X31182D01*
X31518Y32560D02*
X31895D01*
Y32040D02*
Y32560D01*
X31518Y32040D02*
X31895D01*
X29055Y33460D02*
X29432D01*
X29055Y32940D02*
Y33460D01*
Y32940D02*
X29432D01*
X29768Y33460D02*
X30145D01*
Y32940D02*
Y33460D01*
X29768Y32940D02*
X30145D01*
X29055Y32560D02*
X29432D01*
X29055Y32040D02*
Y32560D01*
Y32040D02*
X29432D01*
X29768Y32560D02*
X30145D01*
Y32040D02*
Y32560D01*
X29768Y32040D02*
X30145D01*
X38464Y34310D02*
X38842D01*
X38464Y33790D02*
Y34310D01*
Y33790D02*
X38842D01*
X39177Y34310D02*
X39555D01*
Y33790D02*
Y34310D01*
X39177Y33790D02*
X39555D01*
X38760Y46169D02*
Y46547D01*
X38240D02*
X38760D01*
X38240Y46169D02*
Y46547D01*
X38760Y45456D02*
Y45834D01*
X38240Y45456D02*
X38760D01*
X38240D02*
Y45834D01*
Y43914D02*
Y44292D01*
Y43914D02*
X38760D01*
Y44292D01*
X38240Y44627D02*
Y45005D01*
X38760D01*
Y44627D02*
Y45005D01*
X21443Y39873D02*
X21545D01*
X20441D02*
X20543D01*
X21545Y37727D02*
Y39873D01*
X20441Y37727D02*
Y39873D01*
X20448Y38500D02*
X21552D01*
X18798Y37727D02*
X18900D01*
X19800D02*
X19902D01*
X18798D02*
Y39873D01*
X19902Y37727D02*
Y39873D01*
X18791Y39100D02*
X19895D01*
X22098Y37727D02*
X22200D01*
X23100D02*
X23202D01*
X22098D02*
Y39873D01*
X23202Y37727D02*
Y39873D01*
X22091Y39100D02*
X23195D01*
X12005Y38560D02*
X12382D01*
X12005Y38040D02*
Y38560D01*
Y38040D02*
X12382D01*
X12718Y38560D02*
X13095D01*
Y38040D02*
Y38560D01*
X12718Y38040D02*
X13095D01*
D13*
X38924Y32327D02*
X38928D01*
X39058Y32197D01*
X38924Y32060D02*
Y32064D01*
X39058Y32197D01*
X38924Y32060D02*
Y32327D01*
X38464Y31902D02*
X38916D01*
X38464Y32493D02*
X38916D01*
X38464Y31902D02*
Y32485D01*
X39066Y32494D02*
X39479D01*
X39597Y32336D02*
Y32376D01*
X39479Y32494D02*
X39597Y32376D01*
Y32061D02*
Y32336D01*
Y32021D02*
Y32061D01*
X39479Y31903D02*
X39597Y32021D01*
X39066Y31903D02*
X39479D01*
X38924Y32197D02*
X39058D01*
X39133Y33012D02*
X39137D01*
X39003Y33142D02*
X39133Y33012D01*
X39137Y33276D02*
Y33280D01*
X39003Y33142D02*
X39137Y33276D01*
Y33012D02*
Y33280D01*
X39145Y33437D02*
X39597D01*
X39145Y32847D02*
X39597D01*
Y32855D02*
Y33437D01*
X38582Y32846D02*
X38995D01*
X38464Y32964D02*
Y33003D01*
Y32964D02*
X38582Y32846D01*
X38464Y33003D02*
Y33279D01*
Y33318D01*
X38582Y33436D01*
X38995D01*
X39003Y33142D02*
X39137D01*
X39273Y45913D02*
Y45917D01*
X39403Y46047D01*
X39536Y45913D02*
X39540D01*
X39403Y46047D02*
X39536Y45913D01*
X39273D02*
X39540D01*
X39698Y45453D02*
Y45905D01*
X39107Y45453D02*
Y45905D01*
X39115Y45453D02*
X39698D01*
X39106Y46055D02*
Y46468D01*
X39224Y46586D02*
X39264D01*
X39106Y46468D02*
X39224Y46586D01*
X39264D02*
X39539D01*
X39579D01*
X39697Y46468D01*
Y46055D02*
Y46468D01*
X39403Y45913D02*
Y46047D01*
X39273Y44363D02*
Y44367D01*
X39403Y44497D01*
X39536Y44363D02*
X39540D01*
X39403Y44497D02*
X39536Y44363D01*
X39273D02*
X39540D01*
X39698Y43903D02*
Y44355D01*
X39107Y43903D02*
Y44355D01*
X39115Y43903D02*
X39698D01*
X39106Y44505D02*
Y44918D01*
X39224Y45036D02*
X39264D01*
X39106Y44918D02*
X39224Y45036D01*
X39264D02*
X39539D01*
X39579D01*
X39697Y44918D01*
Y44505D02*
Y44918D01*
X39403Y44363D02*
Y44497D01*
X12463Y36597D02*
X12597D01*
X12605Y36303D02*
X13018D01*
X13136Y36421D01*
Y36461D01*
Y36736D01*
X13018Y36894D02*
X13136Y36776D01*
Y36736D02*
Y36776D01*
X12605Y36894D02*
X13018D01*
X12003Y36302D02*
Y36885D01*
Y36893D02*
X12455D01*
X12003Y36302D02*
X12455D01*
X12463Y36460D02*
Y36727D01*
Y36464D02*
X12597Y36597D01*
X12463Y36460D02*
Y36464D01*
X12467Y36727D02*
X12597Y36597D01*
X12463Y36727D02*
X12467D01*
M02*
