G04*
G04 #@! TF.GenerationSoftware,Altium Limited,Altium Designer,20.2.6 (244)*
G04*
G04 Layer_Color=8388736*
%FSLAX24Y24*%
%MOIN*%
G70*
G04*
G04 #@! TF.SameCoordinates,601DEEF6-7E2B-4F85-A560-B3D03E394376*
G04*
G04*
G04 #@! TF.FilePolarity,Negative*
G04*
G01*
G75*
%ADD10C,0.0100*%
%ADD26R,0.0434X0.0395*%
%ADD27R,0.0420X0.0398*%
%ADD28R,0.0289X0.0501*%
%ADD29R,0.0398X0.0420*%
%ADD30R,0.0395X0.0395*%
%ADD31R,0.0395X0.0395*%
%ADD32R,0.1064X0.1576*%
%ADD33O,0.2080X0.0680*%
%ADD34R,0.0533X0.1340*%
%ADD35C,0.0680*%
%ADD36R,0.0395X0.0434*%
%ADD37R,0.0749X0.0940*%
%ADD38R,0.0680X0.0680*%
%ADD39C,0.0671*%
%ADD40R,0.0671X0.0671*%
%ADD41R,0.0680X0.0680*%
G36*
X14650Y44543D02*
Y47143D01*
X13950D01*
Y47743D01*
X18250D01*
Y47143D01*
X17800D01*
Y44543D01*
X14650D01*
D02*
G37*
D10*
X13400Y40960D02*
X13800D01*
X13600Y41160D02*
Y40760D01*
X13400Y40400D02*
X13800D01*
X38250Y34700D02*
Y35100D01*
X38450Y35300D01*
X38650Y35100D01*
Y34700D01*
Y35000D01*
X38250D01*
X39250Y35200D02*
X39150Y35300D01*
X38950D01*
X38850Y35200D01*
Y34800D01*
X38950Y34700D01*
X39150D01*
X39250Y34800D01*
X40100Y45920D02*
Y46519D01*
X40400D01*
X40500Y46419D01*
Y46219D01*
X40400Y46119D01*
X40100D01*
X40500Y45460D02*
X40400Y45560D01*
X40200D01*
X40100Y45460D01*
Y45060D01*
X40200Y44960D01*
X40400D01*
X40500Y45060D01*
Y45260D01*
X40300D01*
X40100Y44000D02*
Y44600D01*
X40500Y44000D01*
Y44600D01*
X36150Y40369D02*
Y39969D01*
X36350Y39770D01*
X36550Y39969D01*
Y40369D01*
X36750Y39770D02*
Y40369D01*
X37050D01*
X37150Y40269D01*
Y40069D01*
X37050Y39969D01*
X36750D01*
X36150Y39410D02*
Y39010D01*
X36350Y38810D01*
X36550Y39010D01*
Y39410D01*
X36750Y38810D02*
Y39210D01*
X36950Y39410D01*
X37150Y39210D01*
Y38810D01*
Y39110D01*
X36750D01*
X37749Y39310D02*
X37650Y39410D01*
X37450D01*
X37350Y39310D01*
Y38910D01*
X37450Y38810D01*
X37650D01*
X37749Y38910D01*
X36150Y38450D02*
Y38050D01*
X36350Y37850D01*
X36550Y38050D01*
Y38450D01*
X36750D02*
X36950D01*
X36850D01*
Y37850D01*
X36750D01*
X36950D01*
X37250D02*
Y38450D01*
X37650Y37850D01*
Y38450D01*
D26*
X21350Y34324D02*
D03*
Y34876D02*
D03*
X20200Y34324D02*
D03*
Y34876D02*
D03*
X30050Y38351D02*
D03*
Y37800D02*
D03*
X22450Y34324D02*
D03*
Y34876D02*
D03*
X29100Y40276D02*
D03*
Y39724D02*
D03*
D27*
X30050Y39753D02*
D03*
Y40347D02*
D03*
X38500Y46298D02*
D03*
Y45705D02*
D03*
Y44163D02*
D03*
Y44756D02*
D03*
D28*
X29974Y34997D02*
D03*
X29226D02*
D03*
X29600Y34103D02*
D03*
D29*
X31103Y34350D02*
D03*
X31697D02*
D03*
X31053Y32300D02*
D03*
X31647D02*
D03*
X29303Y33200D02*
D03*
X29897D02*
D03*
X29303Y32300D02*
D03*
X29897D02*
D03*
X38713Y34050D02*
D03*
X39306D02*
D03*
X12253Y38300D02*
D03*
X12847D02*
D03*
D30*
X38696Y32199D02*
D03*
X39326Y32201D02*
D03*
X39365Y33141D02*
D03*
X38735Y33138D02*
D03*
X12865Y36601D02*
D03*
X12235Y36599D02*
D03*
D31*
X39401Y45685D02*
D03*
X39399Y46315D02*
D03*
X39401Y44135D02*
D03*
X39399Y44765D02*
D03*
D32*
X17152Y38900D02*
D03*
X14948D02*
D03*
D33*
X20050Y45300D02*
D03*
X23550D02*
D03*
X18150Y33900D02*
D03*
X14650D02*
D03*
X26550Y45300D02*
D03*
X30050D02*
D03*
D34*
X14760Y42200D02*
D03*
X16100D02*
D03*
X15430D02*
D03*
X16770D02*
D03*
X17440D02*
D03*
D35*
X16150Y47300D02*
D03*
X34700Y44300D02*
D03*
Y45300D02*
D03*
X12550Y40400D02*
D03*
X34700Y32700D02*
D03*
Y33700D02*
D03*
X37250Y44250D02*
D03*
Y45250D02*
D03*
X35150Y40100D02*
D03*
Y39100D02*
D03*
X37250Y33150D02*
D03*
D36*
X20626Y32100D02*
D03*
X20074D02*
D03*
X22074D02*
D03*
X22626D02*
D03*
D37*
X20993Y39666D02*
D03*
Y37934D02*
D03*
X19350D02*
D03*
Y39666D02*
D03*
X22650Y37934D02*
D03*
Y39666D02*
D03*
D38*
X34700Y46300D02*
D03*
Y34700D02*
D03*
D39*
X27700Y32100D02*
D03*
Y33100D02*
D03*
Y34100D02*
D03*
Y35100D02*
D03*
X24700Y32100D02*
D03*
Y33100D02*
D03*
Y34100D02*
D03*
Y40650D02*
D03*
Y39650D02*
D03*
Y38650D02*
D03*
Y37650D02*
D03*
X27700Y40650D02*
D03*
Y39650D02*
D03*
Y38650D02*
D03*
D40*
X24700Y35100D02*
D03*
X27700Y37650D02*
D03*
D41*
X12550Y41400D02*
D03*
X37250Y46250D02*
D03*
X35150Y38100D02*
D03*
X37250Y34150D02*
D03*
M02*
